<svg xmlns="http://www.w3.org/2000/svg" xmlns:xlink="http://www.w3.org/1999/xlink" width="378.37" height="375.02" viewBox="0 0 378.37 375.02">
  <defs>
    <style>
      .cls-1 {
        opacity: 0.1;
      }

      .cls-1, .cls-19, .cls-24, .cls-28, .cls-34, .cls-35, .cls-37, .cls-40, .cls-9 {
        isolation: isolate;
      }

      .cls-2 {
        fill: #c3c3c3;
      }

      .cls-3 {
        fill: #ececec;
      }

      .cls-4 {
        fill: #a7a7a5;
      }

      .cls-5 {
        fill: #447289;
      }

      .cls-6 {
        fill: #5388a8;
      }

      .cls-7 {
        opacity: 0.29;
      }

      .cls-8 {
        fill: #354349;
      }

      .cls-9 {
        opacity: 0.05;
      }

      .cls-10, .cls-11 {
        fill: #876e5c;
      }

      .cls-10, .cls-18, .cls-36, .cls-43 {
        stroke-miterlimit: 10;
      }

      .cls-10 {
        stroke: url(#Безымянный_градиент_5);
      }

      .cls-12, .cls-37 {
        fill: #ccb69f;
      }

      .cls-13, .cls-19 {
        opacity: 0.22;
      }

      .cls-14 {
        fill: #f7e8d5;
      }

      .cls-15 {
        fill: #997e6b;
      }

      .cls-16, .cls-35 {
        fill: #b79b88;
      }

      .cls-17 {
        fill: #6b5647;
      }

      .cls-18 {
        fill: url(#Безымянный_градиент_5-2);
        stroke: url(#Безымянный_градиент_5-3);
      }

      .cls-19, .cls-24 {
        fill: #7f6858;
      }

      .cls-20 {
        fill: #a5645b;
      }

      .cls-21 {
        fill: #d27f6f;
      }

      .cls-22 {
        fill: #bb9f87;
      }

      .cls-23 {
        fill: #a58771;
      }

      .cls-24, .cls-28 {
        opacity: 0.64;
      }

      .cls-25 {
        fill: #e2cfba;
      }

      .cls-26, .cls-28 {
        fill: #b75e53;
      }

      .cls-27 {
        opacity: 0.51;
      }

      .cls-29 {
        fill: #bfa690;
      }

      .cls-30 {
        fill: #5d4c44;
      }

      .cls-31 {
        fill: #5e4d45;
      }

      .cls-32 {
        fill: #fff;
      }

      .cls-33 {
        fill: #7d4a39;
      }

      .cls-34 {
        opacity: 0.31;
        fill: url(#Безымянный_градиент_4);
      }

      .cls-35 {
        opacity: 0.47;
      }

      .cls-36 {
        fill: url(#Безымянный_градиент_5-4);
        stroke: url(#Безымянный_градиент_5-5);
      }

      .cls-37 {
        opacity: 0.48;
      }

      .cls-38 {
        fill: #e6daca;
      }

      .cls-39 {
        fill: #d0c0a6;
      }

      .cls-40 {
        fill: #a08d72;
        opacity: 0.56;
      }

      .cls-41 {
        fill: #f9f0df;
      }

      .cls-42 {
        fill: #f1e3c9;
      }

      .cls-43 {
        fill: none;
        stroke: #a58771;
      }

      .cls-44 {
        fill: #104f68;
      }
    </style>
    <linearGradient id="Безымянный_градиент_5" data-name="Безымянный градиент 5" x1="162.87" y1="-168.36" x2="235.33" y2="-168.36" gradientTransform="matrix(1, 0.03, 0.03, -1, -28.96, 131.99)" gradientUnits="userSpaceOnUse">
      <stop offset="0" stop-color="#876e5c"/>
      <stop offset="1" stop-color="#997e6b"/>
    </linearGradient>
    <linearGradient id="Безымянный_градиент_5-2" x1="170.79" y1="-197.18" x2="247.47" y2="-100.93" xlink:href="#Безымянный_градиент_5"/>
    <linearGradient id="Безымянный_градиент_5-3" x1="193.1" y1="-97.51" x2="340.52" y2="-97.51" xlink:href="#Безымянный_градиент_5"/>
    <linearGradient id="Безымянный_градиент_4" data-name="Безымянный градиент 4" x1="322.35" y1="53.16" x2="325.92" y2="24.8" gradientTransform="matrix(1, 0.03, 0.03, -1, -28.96, 131.99)" gradientUnits="userSpaceOnUse">
      <stop offset="0" stop-color="#fff"/>
      <stop offset="1" stop-color="#fff" stop-opacity="0"/>
    </linearGradient>
    <linearGradient id="Безымянный_градиент_5-4" x1="225.87" y1="-208.36" x2="243.64" y2="-155.69" xlink:href="#Безымянный_градиент_5"/>
    <linearGradient id="Безымянный_градиент_5-5" x1="203.11" y1="-178.01" x2="254.92" y2="-178.01" xlink:href="#Безымянный_градиент_5"/>
  </defs>
  <title>Собака и котРесурс 2</title>
  <g id="Слой_2" data-name="Слой 2">
    <g id="Слой_1-2" data-name="Слой 1">
      <path class="cls-1" d="M207.31,311.27c-.78,7.36-31.44,10.16-68.49,6.25S71.33,297.06,72.1,289.69s32.49-2.75,69.54,1.16S208.09,303.91,207.31,311.27Z"/>
      <path class="cls-2" d="M44,301c-4.86.61-1.37-14.22-2.21-23s3.11-9.26,8-9.86,10.06,12,10.9,20.75S48.87,300.44,44,301Z"/>
      <path class="cls-3" d="M.78,275.49a11.51,11.51,0,0,1,5,3.88c1.09,1.58,3.69.09,2.59-1.51a14.33,14.33,0,0,0-6-5c-1.74-.78-3.27,1.8-1.51,2.6Z"/>
      <path class="cls-4" d="M206.88,299.86c-.18-9.86-44-14.39-76-17.7s-31,1.2-30.93,6.64-.73,9.77,31.28,13.08S207.09,312,206.88,299.86Z"/>
      <path class="cls-5" d="M178.57,282.59s-48.32-12-49.34-12.14-22.94-.77-22.94-.77l-3.17,23,3.16,4.63,56.64,13.27L174,304Z"/>
      <path class="cls-6" d="M120.07,291c3.44,5.23,26.23,6.6,43.68,7.2,16.05.55,30.2-1.84,17.92-13.26-9.63-8.95-52.16-22.44-67.09-17.68C96.06,273.18,103,285.48,120.07,291Z"/>
      <path class="cls-2" d="M162.92,310.58c.15,8.21,19.81,2.05,32,3.31s12.09-5.39,11.94-13.6-18.47-16.75-30.69-18S162.78,302.37,162.92,310.58Z"/>
      <path class="cls-2" d="M118.28,301.21c5,.52-.25-14.31-.41-23.13s-4.2-9.24-9.19-9.75-8.8,12.22-8.64,21.05S113.29,300.69,118.28,301.21Z"/>
      <path class="cls-4" d="M99.91,288.74h0c.1,5.44-.73,9.76,31.28,13.07s75.88,10.12,75.67-2l.17,10h0c0,12-43.74,5.24-75.67,1.94s-31.19-7.59-31.27-13h0Z"/>
      <path class="cls-3" d="M163.75,298.22c2.6,2.25,51,8.14,37.49-6.23-5.09-5.41-17.65-8.95-25.05-9.71C165.68,281.19,163.46,292,163.75,298.22Z"/>
      <path class="cls-3" d="M164.12,274.85a12.78,12.78,0,0,0-5.59,5.08,1.5,1.5,0,0,0,.62,2,1.49,1.49,0,0,0,2-.51,10,10,0,0,1,4.51-4c1.74-.85.22-3.44-1.51-2.59Z"/>
      <path class="cls-3" d="M157.39,272.15a12.7,12.7,0,0,0-5.58,5.08,1.5,1.5,0,0,0,2.59,1.52,10,10,0,0,1,4.51-4c1.73-.85.21-3.44-1.52-2.59Z"/>
      <g class="cls-7">
        <path class="cls-8" d="M157.81,276.21c-14.84-6.31-32.18-11.12-41-9.14a32.62,32.62,0,0,0-3.63,1c-.74-.18-1.53-.34-2.34-.49-4.14-.8-8.26,7.81-9.83,15.8a10.8,10.8,0,0,0-.65,3.77h0l-.69,10h0c-.26,3.71-.82,6.87,9.1,10.44,1.77-4.76-2.79-6.87,1.46-10.89C119.31,288.2,141.1,279.32,157.81,276.21Zm-57.42,11c0,.32,0,.64-.07.95,0-.33,0-.65.07-1Z"/>
      </g>
      <ellipse class="cls-9" cx="246.44" cy="349.16" rx="22" ry="132" transform="translate(-110.85 583.66) rotate(-88.06)"/>
      <path class="cls-1" d="M301.69,340.86c-16.36-1.9-30,.13-30.43,4.53-.14,1.38,1,2.56,3.18,3.58l-.35,0c-1.19-.14-2.36-.26-3.51-.35a4.82,4.82,0,0,0,.11-.52c1-10-31.08-12-68.23-16.28s-68.08.31-69.09,10.29,27.67,15.19,64.81,19.49c21,2.43,41.11,1,54.8-2.54a175.93,175.93,0,0,0,19.23,3c16.36,1.89,31.48-1.55,31.93-6a2.1,2.1,0,0,0-.79-1.79c14.94,1.05,28-2.2,28.39-6.28C332.18,343.63,318.05,342.75,301.69,340.86Z"/>
      <path class="cls-10" d="M199,338.63a39.44,39.44,0,0,1-7.31,4,54.92,54.92,0,0,1-7.58,2.66,57.44,57.44,0,0,1-7.79,1.56,55.16,55.16,0,0,1-8,.46,51,51,0,0,1-8.27-.77l-2.11-.43c-.71-.15-1.41-.35-2.12-.53s-1.43-.41-2.15-.64l-2.16-.77a39.88,39.88,0,0,1-8.77-4.72c-.73-.54-1.45-1.07-2.17-1.71l-1.08-.92c-.36-.33-.71-.68-1.06-1s-.7-.69-1-1.08l-1-1.16-.5-.59c-.16-.2-.32-.43-.48-.64-.33-.43-.65-.85-1-1.29s-.6-.92-.89-1.39-.58-.95-.85-1.43-.53-1-.78-1.52a15.9,15.9,0,0,1-.73-1.56,34.63,34.63,0,0,1-1.18-3.28c-.17-.56-.33-1.12-.49-1.68s-.25-1.14-.37-1.71a36.63,36.63,0,0,1-.16-13c.15-1,.37-1.95.59-2.9.12-.47.23-.95.36-1.4l.41-1.32.42-1.32c.13-.44.31-.83.47-1.24.33-.81.65-1.65,1-2.42s.73-1.51,1.11-2.26c.18-.38.38-.72.58-1.08l.6-1c.8-1.42,1.68-2.66,2.56-3.94.45-.61.9-1.2,1.37-1.79s.92-1.18,1.4-1.72c1-1.09,1.93-2.2,3-3.17s2-2,3.1-2.87c.54-.45,1.06-.9,1.6-1.34s1.09-.84,1.65-1.25,1.1-.81,1.66-1.2,1.14-.76,1.72-1.12c1.17-.71,2.3-1.45,3.53-2.06s2.42-1.25,3.67-1.79,2.58-1,3.9-1.45l1.1,1.16c-1.57,2-3.15,3.93-4.67,5.94-.78,1-1.52,2-2.26,3-.37.51-.75,1-1.11,1.53L155.61,280a96.71,96.71,0,0,0-7.75,13l-.79,1.72c-.13.28-.26.57-.38.86l-.35.87c-.23.59-.5,1.16-.7,1.75L145,300a35.38,35.38,0,0,0-1.61,7.27,21.9,21.9,0,0,0,.37,7.22,17.78,17.78,0,0,0,2.83,6.4,23,23,0,0,0,4.83,5,33.68,33.68,0,0,0,6,3.66A64.14,64.14,0,0,0,170.74,334a105.09,105.09,0,0,0,14,2.21,134.44,134.44,0,0,0,14.19.72Z"/>
      <path class="cls-11" d="M230.82,349.93a2.17,2.17,0,0,1-1.29-2.44,20.24,20.24,0,0,1,7.28-10.81c1.88-1.23,4.46-.8,8-1.18,1.31-1.13,5.74-1.51,7.35-.6,3.58,2,5.75,6.85,6.57,13.81.13,1.1-1.61,3.38-10.79,3.59C237.48,352.54,234.23,351.48,230.82,349.93Z"/>
      <path class="cls-12" d="M230.84,349.53a2.17,2.17,0,0,1-1.29-2.44c1-4.35,4.59-9.45,7.3-11.21,1.88-1.22,4.46-.8,8-1.18,1.31-1.13,5.75-1.51,7.35-.6,3.58,2,5.73,7.25,6.55,14.21.13,1.1-.8,1.85-1.93,2.06C251,351.44,236.18,352,230.84,349.53Z"/>
      <path class="cls-11" d="M250.4,339a45.33,45.33,0,0,1,1.81,6.13,48.43,48.43,0,0,1,1,6.33l-1.25,0a47,47,0,0,0-.36-6.27A45.78,45.78,0,0,0,250.4,339Z"/>
      <path class="cls-11" d="M241.64,338.49a30.25,30.25,0,0,1,.87,3.27,31.3,31.3,0,0,1,.51,3.34,29.66,29.66,0,0,1,.17,3.4,26,26,0,0,1-.25,3.41l-1.23-.23a25.17,25.17,0,0,0,.54-3.24,30.44,30.44,0,0,0,.15-3.31c0-1.11-.08-2.22-.2-3.33A28.59,28.59,0,0,0,241.64,338.49Z"/>
      <g class="cls-13">
        <ellipse class="cls-14" cx="249.65" cy="335.16" rx="1.2" ry="2.92" transform="translate(-98.43 566.46) rotate(-86.92)"/>
        <path class="cls-14" d="M237.46,337.05c-.06-.66,1.85-1.34,4.27-1.5s4.41.23,4.47.89-1.86,1.34-4.27,1.5S237.51,337.71,237.46,337.05Z"/>
      </g>
      <path class="cls-11" d="M235.51,350.84c-6.22,1.6-38.64.29-42.49-6.24-8-15,17.43-62.8,32.52-60.55,10.15,1.52,14.17,33.22,15.65,51.5C241.19,335.55,236.53,341.05,235.51,350.84Z"/>
      <path class="cls-15" d="M293.28,240s-12.5,33.18,6.35,67.61l18.85,34.44L299.08,346s-7.56-45.28-15.77-59.85S265.52,258,265.52,258l1.64-5.06-3.62,3.73s1.55-5.86,1.38-7.45,4.74-10.33,11.69-10.5S282.73,234.25,293.28,240Z"/>
      <path class="cls-11" d="M286.86,293.18c-.63-1-.91-2.05-1.55-3l0,.08c8.22,14.57,15.42,59.9,15.42,59.9l4-.8C302.48,339.37,294.4,305.17,286.86,293.18Z"/>
      <path class="cls-16" d="M299.63,307.64A83.49,83.49,0,0,1,294,294.89c2.44,9.78-.93,12.87,9.78,50.06l14.74-2.87Z"/>
      <path class="cls-17" d="M225.92,351.44c5-10,11.55-25.13,12.62-36.95C236.13,299.09,232,284,225,283a7.94,7.94,0,0,0-2.75.1c-4.36,12.05-9.08,25.84-17.64,36.26-7.13,8.67-5.28,20.55-1.89,29.95A125.88,125.88,0,0,0,225.92,351.44Z"/>
      <path class="cls-12" d="M301,239.65c2-5.08.81-16.91.81-16.91L310,213S308.76,227.81,301,239.65Z"/>
      <path class="cls-18" d="M157.75,338.8c.9-32.19,30.16-56.73,54-93.25,14.76-22.62,27.89-56.07,29.94-87.85.64-10-19.63-33.89-19.63-33.89l28.39,1s48.4,50.68,58.13,86.23c-.78,22.79-50.42,69.63-68,92.57-2,12.4-12.19,30.64-19.86,40a20.88,20.88,0,0,1-15.82,7.86C188.78,351.64,157.42,350.56,157.75,338.8Z"/>
      <path class="cls-12" d="M309.8,214.8l-32.21,33.78s-23.35.81-33.9,11.27-19.37,33.77-35.83,46.42-3.7,44.71-3.7,44.71a3.81,3.81,0,0,0,.13.45h.6a20.88,20.88,0,0,0,15.82-7.86c7.67-9.35,19.6-25.53,21.61-37.93C259.13,283.7,305.12,238.63,309.8,214.8Z"/>
      <path class="cls-19" d="M255.08,249.12a26.78,26.78,0,0,0-5.89,4.31c-3.29,3.26-.3,2.43-3.53,7.48.69,1.42,7.19,24.26.85,39.26,2.71-3.28,11.19-12.94,14.57-16.8,1.63-18.2,8.34-30.26,8.34-30.26C260.83,246.36,260.11,249.21,255.08,249.12Z"/>
      <path class="cls-14" d="M259.43,134.48l-17.64,3.81s11,14.48,11.72,19.61c-3.18,7.89-6.12,36.26-7.17,47.32a11.47,11.47,0,0,0,2.14,7.89l27.25,36.61s33.39-22.69,35-38.64C303.62,185,274.29,151.07,259.43,134.48Z"/>
      <path class="cls-11" d="M317.89,43.59c2.86-7.36-.05-12.46-.05-12.46l7.07-8.59S324.28,35.39,317.89,43.59Z"/>
      <polygon class="cls-20" points="264.36 6.76 268.66 50.7 280.05 78.89 309.05 45.52 264.36 6.76"/>
      <polygon class="cls-21" points="265.69 9.52 275.23 55.76 277.74 71.83 308.23 44.41 265.69 9.52"/>
      <path class="cls-11" d="M264.45,6.59c-.11,3.59,16.51,24.83,43.23,49.84,8.25-11.62,26.16-46.77,22.44-53C298-1.4,264.45,6.59,264.45,6.59Z"/>
      <path class="cls-22" d="M264.45,6.59c0,1.22,16.15,23.6,42.45,47.17,8.33-11.38,20.47-35.83,23.17-50.06C301.58-6.07,264.45,6.59,264.45,6.59Z"/>
      <path class="cls-23" d="M297,18.8a115.82,115.82,0,0,0,30.79-6.45c-4.66,14.05-14,32.11-20.84,41.41a320.29,320.29,0,0,1-34-35.54A109.75,109.75,0,0,0,297,18.8Z"/>
      <path class="cls-22" d="M230.45,37.68c17.53.63,25.18,12.26,25.18,12.26l23.88-7.8S252.93,31,230.45,37.68Z"/>
      <path class="cls-22" d="M223,43.28c9.33-2.08,14.69,3,14.69,3l11.71-7.37S234.06,36.7,223,43.28Z"/>
      <polygon class="cls-20" points="212.14 13.32 222.33 63.84 215.72 95.58 185.55 71.74 212.14 13.32"/>
      <polygon class="cls-21" points="211.31 16.49 217.1 71 216.89 87.81 186.14 70.36 211.31 16.49"/>
      <path class="cls-11" d="M212.29,13.06c1.91,3.41-2.75,38.16-14.87,85.14-13.52-4.36-47.87-23.48-47.55-32.67C177.18,33.63,212.29,13.06,212.29,13.06Z"/>
      <path class="cls-15" d="M185.81,122.37c7.7-8.6,15.66-8.79,15.66-8.79l17.76-51.71S192.66,109,185.81,122.37Z"/>
      <path class="cls-24" d="M278.56,157C264.25,138.79,250.8,125,250.8,125l-28.39-1s12.68,15,17.66,26.15A217,217,0,0,0,271,156.22Q274.83,156.7,278.56,157Z"/>
      <path class="cls-22" d="M212.29,13.06c.63,1.18-3,36.66-15.5,81.88-13.46-4-37.06-17.63-46.75-29.21C171.5,32.11,212.29,13.06,212.29,13.06Z"/>
      <path class="cls-23" d="M218.73,49.64c5.57-4.49,14.81-8,22.25-10.21a41.55,41.55,0,0,1,22.07-.61c9.42,2.32,22.63,5.83,27.91,8.46,1.61,17.27,20,55.92,20,55.92l14.15,12.49L248,143.5l-38.42-22.31-25.51,5.34S204.07,116.8,218.73,49.64Z"/>
      <path class="cls-15" d="M185.41,135.18c20.18-4.12,38.55,2.11,38.55,2.11l19-11.77S208.35,124.75,185.41,135.18Z"/>
      <path class="cls-14" d="M248.41,179.34a43.78,43.78,0,0,1,4.52-10.5l-.23-8.56S248.38,173,248.41,179.34Z"/>
      <path class="cls-14" d="M264.64,238.34c-2.78-4.21-5.73-16-5.73-16l-8.09-6.5S256.19,229.65,264.64,238.34Z"/>
      <path class="cls-14" d="M290.79,240a14.55,14.55,0,0,0,3.52-8.5l11.33-9.35S296.25,236.81,290.79,240Z"/>
      <path class="cls-15" d="M310.94,103.2s-.64-1.34-1.69-3.63c-12.11,11.38-30.76,18.35-51.44,17.65-22-.75-41.08-10-52.18-23.42-11.25,27.71-21.57,32.73-21.57,32.73S214.41,129,215.3,135c9.81,2.58,48.74,13.26,48.74,13.26l61-32.56Z"/>
      <path class="cls-12" d="M232,108.94s34.23,60.53,53.73,59.86c13.34-.46,32.9-46.12,32.9-46.12Z"/>
      <path class="cls-25" d="M232,108.94s35.67,55.81,55.16,55.3c13.33-.34,31.52-42.94,31.52-42.94Z"/>
      <path class="cls-26" d="M298.75,188c-2-.25-3.06-.41-5.07-.82-8.86-1.77-13.06-10.12-10.93-16.75,3.22-10.08-3.74-27.25,1.47-31.93,3.24-2.91,20.38,1,24.17,6,5.79,7.76,7.58,20.05,7.94,30.11C316.59,181.79,307.72,189.09,298.75,188Z"/>
      <path class="cls-21" d="M300.67,186.15c-2-.19-3-.33-5-.67-8.75-1.51-13-9.72-11-16.41,3-10.14-4.11-27,1-31.95,3.14-3,19.94.35,23.74,5.33,5.86,7.66,7.83,19.86,8.37,29.88C318.17,179.47,309.53,187,300.67,186.15Z"/>
      <g class="cls-27">
        <path class="cls-26" d="M303.81,183.18c-1.36-4.46-2.35-8.48-3.25-12.53s-1.66-8-2.29-12c-.4-2-.62-4-.95-6-.15-1.22-.23-1.83-.37-3.06-.15-1-.27-2.05-.36-3.1-.06-.51-.08-1-.13-1.57s-.12-1-.16-1.58c-.09-1.06-.16-2.13-.2-3.23a61.32,61.32,0,0,1-.1-6.78,60.85,60.85,0,0,1,3.51,5.11c.52.91,1,1.82,1.56,2.75s1,1.85,1.48,2.82a63.84,63.84,0,0,1,2.61,5.93,59.39,59.39,0,0,1,2.07,6.25,42.41,42.41,0,0,1,1.44,13.41,25.45,25.45,0,0,1-.43,3.48,24.1,24.1,0,0,1-.86,3.47A19.31,19.31,0,0,1,303.81,183.18Z"/>
      </g>
      <path class="cls-28" d="M284.71,151.35A93.35,93.35,0,0,0,300,142.66c3.92,2.53,12.57,5.23,12.57,5.23l-9-25.52-26.33,13.52Z"/>
      <path class="cls-29" d="M275.66,79.52c-2.76-1.3-4.3-2.08-4.3-2.08l-.95.16C271.26,77.92,273.06,78.6,275.66,79.52Z"/>
      <path class="cls-29" d="M319,133.44a7.16,7.16,0,0,1-8.27.63l-7.69-4.83s-17.88,13.13-25.51,12.66c-15.23-.93-36.8-25.35-47.77-36.44,8.45,12.54,26.86,46.14,47.74,48.25,6.75.68,22.75-15.24,22.75-15.24l6.77,5.65c2.26,1.82,5.27,1.29,7.34-.83,17.11-17.58,20-37.1,20.19-43.89C332.15,102.05,320.83,131.81,319,133.44Z"/>
      <path class="cls-25" d="M257.49,78.17c3.19-1.8,14-3.53,14-3.53S301.91,90.09,334.8,98c-2.53,18.88-14.36,35.26-20.33,42.49a5.17,5.17,0,0,1-7.25.9l-.09-.07-6.77-5.65s-16,15.72-22.74,15.24c-21.81-1.54-48-45.66-48-45.66S246.91,99.83,257.49,78.17Z"/>
      <path class="cls-30" d="M279.45,60.75c-.14-.69-.06-.89,0-.92a2.83,2.83,0,0,1,.28-.2,4.19,4.19,0,0,1,.59-.32,3.31,3.31,0,0,1,1.25-.24,7,7,0,0,1,2.47.49,7.6,7.6,0,0,1,2.13,1.28,7.23,7.23,0,0,1,.87.88,8.11,8.11,0,0,1,.73,1,0,0,0,0,1,0,0h0c-.37-.15-.71-.32-1.06-.46l-.52-.19a3.05,3.05,0,0,0-.51-.17l-.51-.16-.51-.11a4.54,4.54,0,0,0-.51-.09c-.17,0-.33-.06-.5-.06a9.18,9.18,0,0,0-2,0,5.14,5.14,0,0,1-1,0l-.5-.05-.26,0c-.08,0-.18-.1-.49-.71h0S279.46,60.76,279.45,60.75Z"/>
      <path class="cls-30" d="M248.72,65.47c-.06-.71-.25-.85-.39-.83l-.47,0a7.35,7.35,0,0,0-.94,0,7.09,7.09,0,0,0-1.82.37,14.4,14.4,0,0,0-3.23,1.63,11.76,11.76,0,0,0-2.46,2.21,9.7,9.7,0,0,0-.88,1.22,10.06,10.06,0,0,0-.62,1.28s0,0,0,0h0c.46-.31.87-.63,1.3-.93.21-.14.44-.28.64-.43s.43-.28.65-.4l.64-.39.67-.34c.22-.12.44-.23.67-.33s.43-.21.67-.3a19.69,19.69,0,0,1,2.72-.9,10.64,10.64,0,0,0,1.35-.44c.22-.08.45-.19.67-.28l.35-.15c.12,0,.2-.17.41-.89v0S248.73,65.49,248.72,65.47Z"/>
      <path class="cls-11" d="M287,70.87c.6,2.85-.37,5.54-2.17,6s-3.74-1.47-4.34-4.32.38-5.54,2.18-6S286.38,68,287,70.87Z"/>
      <path class="cls-31" d="M286.85,70.29c.53,2.53-.33,4.91-1.93,5.32s-3.31-1.3-3.84-3.82.33-4.91,1.93-5.33S286.32,67.76,286.85,70.29Z"/>
      <path class="cls-32" d="M283.64,70.16c.08,1-.36,1.86-1,1.92s-1.2-.68-1.29-1.67.36-1.85,1-1.92S283.55,69.17,283.64,70.16Z"/>
      <path class="cls-11" d="M249.57,77.61c.6,2.85-.37,5.54-2.17,6s-3.74-1.47-4.33-4.32.37-5.54,2.17-6S249,74.77,249.57,77.61Z"/>
      <path class="cls-31" d="M249.45,77c.53,2.53-.33,4.91-1.93,5.33s-3.31-1.31-3.84-3.83.33-4.91,1.93-5.33S248.92,74.5,249.45,77Z"/>
      <path class="cls-32" d="M246.24,76.9c.08,1-.36,1.86-1,1.92s-1.2-.68-1.29-1.67.36-1.85,1-1.92S246.16,75.91,246.24,76.9Z"/>
      <path class="cls-23" d="M188.35,52.44c-11.1,8.85-22.21,15.61-31.78,19.74,11.42,9.76,29.21,19.44,40.22,22.76a549.72,549.72,0,0,0,13.6-63.45A165.39,165.39,0,0,1,188.35,52.44Z"/>
      <path class="cls-22" d="M291,47.28c-3.66-5.6-19.37-8.57-29.48-9.94a43.88,43.88,0,0,0-17.77,1.29c-7.77,2.2-18.7,5.95-25,11,9.15,2,24.31,4.36,38.33,3.5A168,168,0,0,0,291,47.28Z"/>
      <path class="cls-25" d="M238.31,47.3c12.55,6,19,31.07,19,31.07l14-3.53s-1.88-19.68,4.3-29.88c-2-3.08-10-4-15.66-4.26a39.85,39.85,0,0,0-13.21,1.58C242.92,43.41,238.94,45.09,238.31,47.3Z"/>
      <path class="cls-14" d="M259.9,40.69a40.12,40.12,0,0,0-13.21,1.59c-3.77,1.13-7.75,2.81-8.38,5a21.73,21.73,0,0,1,7.07,5.89,111,111,0,0,0,11.68,0,153.91,153.91,0,0,0,15.87-1.85A25.44,25.44,0,0,1,275.56,45C273.57,41.88,265.6,41,259.9,40.69Z"/>
      <path class="cls-12" d="M275.75,76.72c-2.75-1.29-4.3-2.08-4.3-2.08l-.94.16C271.35,75.12,273.15,75.8,275.75,76.72Z"/>
      <path class="cls-12" d="M319.12,130.64a7.18,7.18,0,0,1-8.27.64l-7.69-4.84s-17.89,13.13-25.52,12.66c-15.23-.93-32.51-15.65-43.47-26.74,8.45,12.54,27.17,37.4,43.45,38.55,6.76.48,22.74-15.24,22.74-15.24l6.77,5.65a5.22,5.22,0,0,0,7.33-.82h0c14.92-17.25,17.9-30,19.62-37.51C329.92,118.45,320.92,129,319.12,130.64Z"/>
      <polygon class="cls-14" points="257.3 78.37 260.7 106.91 330.2 99.25 271.28 74.44 257.3 78.37"/>
      <path class="cls-33" d="M260.88,107.11S277.71,125.78,297,134.4a5.8,5.8,0,0,0,5.89-.71c11.58-8.63,24.2-26.22,27.5-34.23C301.49,91.67,260.88,107.11,260.88,107.11Z"/>
      <path class="cls-19" d="M231.18,330.13c-17.79.89-5.87-1.7-20.92-41.24-5.87-15.4-44.3,39.88-36.34,54.86,6.73,12.67,49,3.66,49,3.66"/>
      <path class="cls-34" d="M265,107.93s1.12,1.28,3.08,3.32a11.1,11.1,0,0,0,6.37,3.3,185,185,0,0,0,39.07,1.27,11.37,11.37,0,0,0,8.6-5.27,60.42,60.42,0,0,0,5.44-9.87C301.61,93.43,265,107.93,265,107.93Z"/>
      <path class="cls-35" d="M158.25,334.81c5.92-32.72,82.07-66.87,82.74-108.48.22-13.28-2.43-27.86-4.57-37.31a199.24,199.24,0,0,1-24.68,56.53c-23.31,35.72-51.81,60-53.89,91.15C158,336.16,158.11,335.54,158.25,334.81Z"/>
      <path class="cls-15" d="M274.83,249.49s-17.07,30.65-3.39,67.94l13.68,37.29-19.7.53s-1-46.07-7-61.88-13.53-30.88-13.53-30.88l2.35-4.73-4.11,3.07s2.37-5.53,2.42-7.13,6.15-9.4,13-8.36S265.25,242,274.83,249.49Z"/>
      <path class="cls-11" d="M259.47,296.55c-.48-1.1-.61-2.18-1.1-3.27l0,.09c6,15.81,6.66,61.87,6.66,61.87l4-.11C268.29,344.91,265.2,309.71,259.47,296.55Z"/>
      <path class="cls-16" d="M271.44,317.43a86.67,86.67,0,0,1-3.78-13.59c1,10.09-2.75,12.57,2.51,51.17l14.95-.29Z"/>
      <path class="cls-11" d="M265.61,357.82a2.24,2.24,0,0,1-1.15-2.41c.84-4.37,3.9-9.16,6.25-11,1.62-1.26,3.88-.9,7-1.36,1.13-1.16,5-1.66,6.4-.79,3.14,1.94,5.08,6.71,5.87,13.65.12,1.1-1.37,3.42-9.38,3.85C271.45,360.26,268.61,359.28,265.61,357.82Z"/>
      <path class="cls-12" d="M265.63,357.42a2.21,2.21,0,0,1-1.15-2.41c.83-4.37,3.91-9.56,6.25-11.39,1.63-1.26,3.89-.9,7-1.36,1.14-1.16,5-1.66,6.41-.79,3.14,1.94,5.06,7.11,5.85,14a2,2,0,0,1-1.66,2.11C283.25,358.83,270.31,359.7,265.63,357.42Z"/>
      <path class="cls-11" d="M282.58,346.38a51,51,0,0,1,1.64,6.08,53.73,53.73,0,0,1,.92,6.3l-1.09.07a54.62,54.62,0,0,0-.37-6.26A50.15,50.15,0,0,0,282.58,346.38Z"/>
      <path class="cls-11" d="M274.94,346.12a30.13,30.13,0,0,1,.78,3.25c.22,1.09.37,2.21.49,3.33a31.75,31.75,0,0,1,.18,3.38,30.15,30.15,0,0,1-.19,3.42l-1.07-.2a32.12,32.12,0,0,0,.44-3.25,30.49,30.49,0,0,0,.09-3.31c0-1.11-.08-2.22-.21-3.32A30.58,30.58,0,0,0,274.94,346.12Z"/>
      <g class="cls-13">
        <ellipse class="cls-14" cx="281.88" cy="342.6" rx="1.2" ry="2.55" transform="translate(-70.05 612.74) rotate(-88.06)"/>
        <path class="cls-14" d="M271.27,344.78c0-.66,1.61-1.38,3.71-1.6s3.86.12,3.91.78-1.61,1.38-3.71,1.61S271.33,345.44,271.27,344.78Z"/>
      </g>
      <path class="cls-11" d="M298.31,350.12a2.21,2.21,0,0,1-1.15-2.41c.83-4.37,3.9-9.16,6.24-11,1.63-1.26,3.88-.9,7-1.36,1.13-1.17,5-1.66,6.4-.79,3.14,1.94,5.08,6.71,5.87,13.65.12,1.1-1.37,3.42-9.37,3.85C304.14,352.56,301.3,351.58,298.31,350.12Z"/>
      <path class="cls-12" d="M298.32,349.72a2.21,2.21,0,0,1-1.15-2.41c.84-4.37,3.91-9.56,6.26-11.39,1.62-1.26,3.88-.9,7-1.36,1.13-1.16,5-1.66,6.4-.79,3.14,1.94,5.07,7.11,5.85,14.05a2,2,0,0,1-1.66,2.11C316,351.13,303,352,298.32,349.72Z"/>
      <path class="cls-11" d="M315.27,338.68a49.14,49.14,0,0,1,1.64,6.08,56,56,0,0,1,.93,6.3l-1.1.07a52.32,52.32,0,0,0-.37-6.26A48.34,48.34,0,0,0,315.27,338.68Z"/>
      <path class="cls-11" d="M307.63,338.42a32.74,32.74,0,0,1,.79,3.25c.21,1.09.37,2.21.48,3.33a31.75,31.75,0,0,1,.18,3.38,32.65,32.65,0,0,1-.18,3.42l-1.08-.2a29.51,29.51,0,0,0,.44-3.25c.09-1.1.12-2.21.1-3.31s-.09-2.22-.21-3.32A33.3,33.3,0,0,0,307.63,338.42Z"/>
      <g class="cls-13">
        <ellipse class="cls-14" cx="314.58" cy="334.9" rx="1.2" ry="2.55" transform="translate(-30.77 637.97) rotate(-88.06)"/>
        <path class="cls-14" d="M304,337.08c-.06-.66,1.6-1.38,3.71-1.6s3.85.12,3.9.78-1.6,1.38-3.71,1.6S304,337.74,304,337.08Z"/>
      </g>
      <path class="cls-36" d="M218.28,348.25s-2.13-62.06-16.43-64.2c-15.08-2.25-40.47,45.57-32.51,60.55,6.73,12.67,48.94,3.65,48.94,3.65"/>
      <path class="cls-37" d="M206.05,301.36a51.8,51.8,0,0,0,3.07-9.67c-2-4.32-4.38-7.21-7.27-7.64-10.16-1.52-25,19.7-31.17,38.28a13.85,13.85,0,0,0,2.09,1.18C183.77,328.54,198.67,318.63,206.05,301.36Z"/>
      <path class="cls-11" d="M193.61,351.08a2.18,2.18,0,0,1-1.29-2.45,20.28,20.28,0,0,1,7.28-10.81c1.88-1.22,4.46-.79,8-1.17,1.31-1.13,5.75-1.52,7.35-.61,3.58,2,5.75,6.85,6.57,13.82.13,1.09-1.61,3.37-10.79,3.58C200.27,353.68,197,352.62,193.61,351.08Z"/>
      <path class="cls-12" d="M193.63,350.68a2.18,2.18,0,0,1-1.29-2.45c1-4.34,4.59-9.45,7.3-11.21,1.88-1.22,4.46-.79,8-1.17,1.31-1.13,5.75-1.52,7.35-.61,3.58,2,5.73,7.25,6.55,14.22.13,1.1-.8,1.85-1.93,2.06C213.82,352.58,199,353.09,193.63,350.68Z"/>
      <path class="cls-11" d="M213.19,340.11a44.77,44.77,0,0,1,1.81,6.12,48.43,48.43,0,0,1,1,6.33l-1.25,0a46.89,46.89,0,0,0-.36-6.27A43.75,43.75,0,0,0,213.19,340.11Z"/>
      <path class="cls-11" d="M204.43,339.64a30.71,30.71,0,0,1,.87,3.26,31.49,31.49,0,0,1,.51,3.35,27.39,27.39,0,0,1,.17,3.39,26,26,0,0,1-.25,3.41l-1.23-.22a25.32,25.32,0,0,0,.54-3.25,28,28,0,0,0,.15-3.31c0-1.11-.08-2.22-.2-3.33A28.42,28.42,0,0,0,204.43,339.64Z"/>
      <g class="cls-13">
        <ellipse class="cls-14" cx="212.44" cy="336.3" rx="1.2" ry="2.92" transform="translate(-134.79 530.38) rotate(-86.92)"/>
        <path class="cls-14" d="M200.25,338.19c-.06-.66,1.85-1.33,4.27-1.5s4.42.23,4.47.9-1.86,1.33-4.27,1.5S200.3,338.85,200.25,338.19Z"/>
      </g>
      <ellipse class="cls-9" cx="116.56" cy="362" rx="12.57" ry="100.53" transform="translate(-249.18 466.25) rotate(-88.06)"/>
      <ellipse class="cls-9" cx="89.54" cy="361.09" rx="4.81" ry="65.53" transform="translate(-274.37 438.36) rotate(-88.06)"/>
      <path class="cls-38" d="M47.24,135.59a4.14,4.14,0,0,0-5.66,4.72c8.72,40-20.38,65.23-13.79,90.42,7,26.55,12.52,34,21,30.43-6.33-28,30.83-56.57,29.2-83.52C76.72,156,59.11,140.7,47.24,135.59Z"/>
      <path class="cls-39" d="M113.15,306.28l19.64,56.63c.78,3,2.57,3.26,4.39.54,10.85-16.19,34.57-52.75,38.23-68.06,1.93-8.06-2.51-19.68-16.11-16.48S113.63,300.33,113.15,306.28Z"/>
      <path class="cls-38" d="M172,282.92a15.48,15.48,0,0,1,2.55,12.88c-3.46,14.47-24.82,47.89-36.31,65.19-2.93-6.12-7.23-19,1.21-38.17C147.59,304.46,165.49,285.76,172,282.92Z"/>
      <path class="cls-39" d="M88.16,276.19s28.26,21,11,55.59a51.72,51.72,0,0,0-2.45,28.92A2.93,2.93,0,0,1,92,363.52c-5.14-4.3-12.12-14.69-16-39.83-1.09-9.64-21.74-23.3-23.73-41C49.89,261.07,76,266.4,88.16,276.19Z"/>
      <path class="cls-40" d="M70.47,313.84C64.73,304.78,55,297.19,53,283c-2.9-21.31,24.46-16.74,36.34-6.79,0,0,27.24,17.64,6.82,63C90.07,321.6,78.9,320.28,70.47,313.84Z"/>
      <path class="cls-38" d="M109.5,221.93c-5.34,9.62-31.27,21.26-31.27,21.26s-44.72,7.55-44.51,34.3c-.41,22.87,12.66,33.08,38,35.94s52.68,9.8,52.68,9.8l12.25-9.8,29-43.29S128,223,109.5,221.93Z"/>
      <path class="cls-39" d="M60.26,264c4.65,28.46,16.66,47,53.71,47,16.58,0,5.51-2,17.76-9.39l-6.94,22.05h0s-27.36-6.94-52.69-9.8-38.39-13.07-38-35.94C34.07,270.85,55.72,268.61,60.26,264Z"/>
      <path class="cls-39" d="M139.9,313.52l-15.18,50c-.67,2.22-4.21,2.49-5.34.41-6.68-12.39-20.88-40.39-19.5-52.11.72-6.18,10.21-15.08,24.91-12.62S141.53,309,139.9,313.52Z"/>
      <path class="cls-39" d="M70.06,282.39s13.07,32.68-19.81,53.1A51.77,51.77,0,0,0,33,358.83a2.94,2.94,0,0,1-5.47-.06c-2.12-6.35-2.61-18.86,7.3-42.27,4.12-8.79-6.3-31.25,1.3-47.38C45.4,249.46,64.85,267.69,70.06,282.39Z"/>
      <path class="cls-38" d="M35.27,310.25c-.14-10.73-5.52-28,.28-41.13,8.71-19.66,29.61-1.43,34.51,13.27,0,0,6.76,31.92-17.89,50.74C45,328.19,39.07,320.16,35.27,310.25Z"/>
      <path class="cls-41" d="M36.16,267.1c9.3-18.37,42.07-23.91,42.07-23.91s25.93-11.64,31.27-21.26a12.93,12.93,0,0,1,1.41.17,35.71,35.71,0,0,1,.2,3.73c0,22.55-19.27,54.11-43.29,54.11A44.7,44.7,0,0,1,36.16,267.1Z"/>
      <path class="cls-41" d="M180.54,224.2c9.5,7.86,11.84,24.09,16.13,48-13.28,31.65-60.24,43.91-60.24,43.91s-42.88-29-46.76-51.26c1-14.5,11.66-38.91,21-45.94C127.63,206.17,164.22,210.7,180.54,224.2Z"/>
      <path class="cls-39" d="M169.55,171.81a13,13,0,0,0-10.42,4.72l-9.66-3.46S160.45,168.84,169.55,171.81Z"/>
      <path class="cls-39" d="M172.47,175.48a7.45,7.45,0,0,0-6.63,1.16l-5.16-3.45S167.56,172.39,172.47,175.48Z"/>
      <path class="cls-21" d="M115.18,150.07s-10,28.22-6.06,45.89,20.17-9.67,20.17-9.67l-.52-17.53S120.43,153.11,115.18,150.07Z"/>
      <path class="cls-20" d="M117.55,165.13s-2.86,16.57,1,26,10.24-7.25,10.24-7.25l-1.94-9.66S120.75,166.32,117.55,165.13Z"/>
      <path class="cls-39" d="M115.18,150.07c3.2,5.15,11.29,15.36,6.73,35.7s18.13-8.3,18.13-8.3S139,162.75,115.18,150.07Z"/>
      <path class="cls-21" d="M210.86,167.64s-.69,29.93-10.65,45.05-15.41-16.2-15.41-16.2l6.71-16.21S204.87,168.62,210.86,167.64Z"/>
      <path class="cls-20" d="M203.29,180.88s-3.21,16.5-10.15,23.92-7-10.42-7-10.42l5.24-8.33S199.88,180.85,203.29,180.88Z"/>
      <path class="cls-39" d="M210.86,167.64c-4.83,3.68-16,10.35-19,31s-14-14.2-14-14.2S184.08,171,210.86,167.64Z"/>
      <path class="cls-39" d="M92.92,221.49c-4.2,22.88,20.84,31.3,52.56,37.12s58.12,6.86,62.32-16-14.88-63.71-46.6-69.54S97.13,198.61,92.92,221.49Z"/>
      <path class="cls-41" d="M98.32,218c-3.68,20.09,19.38,27.67,48.57,33s53.44,6.47,57.13-13.62-14.15-56.13-43.34-61.5S102,197.86,98.32,218Z"/>
      <path class="cls-39" d="M197.84,242.24c5.88-4.6,8-9.92,6.27-16.05,2-.07,2.64,6.3,2.64,6.3S207.24,238.63,197.84,242.24Z"/>
      <path class="cls-39" d="M102,224.64c-3.86-6.39-4-12.11-.16-17.22-1.86-.79-4.7,5-4.7,5S94.52,217.93,102,224.64Z"/>
      <path class="cls-39" d="M141,222.92c-.51,2.77,2.11,14.29,7.77,15.33s12.2-8.8,12.71-11.57-5.21,2.57-10.87,1.53S141.55,220.14,141,222.92Z"/>
      <path class="cls-39" d="M143.9,197.27c-1.85-1.49-17.66.58-23.36,11.76,2.11,7.46,20.84,9.18,22.38,21.5C150.08,227.2,149.37,201.71,143.9,197.27Z"/>
      <path class="cls-39" d="M167.76,201.65c2.25-.74,16.3,6.82,17.65,19.29-4.62,6.22-22.73,1.18-28.55,12.14C151.35,227.44,161.06,203.86,167.76,201.65Z"/>
      <path class="cls-23" d="M141,222.92c-.51,2.77,3.44,7.06,9.1,8.1s10.87-1.57,11.38-4.34-3.81-5.06-9.47-6.1S141.55,220.14,141,222.92Z"/>
      <ellipse class="cls-42" cx="151.28" cy="224.8" rx="5.11" ry="10.41" transform="translate(-97.15 332.98) rotate(-79.59)"/>
      <line class="cls-43" x1="150.63" y1="229.45" x2="151.59" y2="224.23"/>
      <path class="cls-21" d="M156.85,222.2c-1.12.78-2.42,1.72-3.47,2.47a2.32,2.32,0,0,1-3.24-.51l0,0-2.48-3.6a1.16,1.16,0,0,1,1.16-1.78l7.62,1.4a1.15,1.15,0,0,1,.92,1.34A1.1,1.1,0,0,1,156.85,222.2Z"/>
      <path class="cls-23" d="M130.42,207.64c0,3.76,3.58,7.22,8.05,7.72s8.12-2.14,8.15-5.9-3.58-7.22-8.05-7.72S130.45,203.87,130.42,207.64Z"/>
      <path class="cls-44" d="M132.09,208.59c0,3.34,2.88,6.37,6.49,6.78s6.55-2,6.58-5.31-2.89-6.37-6.5-6.78S132.11,205.25,132.09,208.59Z"/>
      <path class="cls-32" d="M138.89,208.41c.45,2.25,1.92,4.1,3.3,4.14s2.12-1.76,1.68-4-1.93-4.1-3.3-4.13S138.44,206.16,138.89,208.41Z"/>
      <path class="cls-23" d="M176.14,216c-1.31,3.53-5.91,5.48-10.27,4.36s-6.83-4.88-5.52-8.41,5.91-5.48,10.27-4.36S177.45,212.51,176.14,216Z"/>
      <path class="cls-44" d="M174.24,216.33c-1.16,3.13-5,4.94-8.48,4s-5.42-4.17-4.26-7.29,5-4.94,8.48-4S175.41,213.21,174.24,216.33Z"/>
      <path class="cls-32" d="M173.33,214.08c.17,2.24-.82,4-2.2,3.85s-2.65-2-2.82-4.24.82-4,2.2-3.85S173.16,211.85,173.33,214.08Z"/>
      <path class="cls-40" d="M153.79,302.81c2.83,3.54,23.87-16.44,22.87-12.25-3.46,14.46-6.13,17.15-9,23.28-2.93-6.13-22.87,2-35.53,11.84C130.1,303.63,147.24,305.65,153.79,302.81Z"/>
      <path class="cls-38" d="M105.45,315.07a59.32,59.32,0,0,1,1.69-14.17c3.93-3.11,9.77-5.13,17-3.8,13.33,2.46,15.18,9.82,13.7,14.38l-11.24,40.8a2.83,2.83,0,0,1-3.47,2,2.72,2.72,0,0,1-.92-.45C112.24,346.42,105.45,331.84,105.45,315.07Z"/>
      <path class="cls-39" d="M140.52,301s32.26-7.19,54.36-24.76c-15.36,28.66-58.71,40.27-58.71,40.27s-42.48-29.4-46.36-51.66c.06-.77.14-1.58.25-2.41C103.31,286.53,140.52,301,140.52,301Z"/>
      <path class="cls-41" d="M42.21,143.56c-.18-1-.37-2.07-.6-3.12a4.22,4.22,0,0,1,5.84-4.76c11.87,5.2,29.27,20.46,30.58,42,1,16.61-12.72,33.84-21.92,51.17a6.07,6.07,0,0,1-10.78-.14h0c-11.1-21.94,8.89-50.58-3.12-85.1Z"/>
    </g>
  </g>
</svg>
