<?xml version="1.0" encoding="UTF-8"?> <svg xmlns="http://www.w3.org/2000/svg" width="358" height="289" viewBox="0 0 358 289" fill="none"> <path d="M352.966 240.564C348.891 246.823 342.387 251.012 336.878 256.081C328.304 263.97 321.963 274.288 312.346 280.857C302.729 287.426 287.57 288.551 280.969 278.95C275.443 270.947 278.573 260.059 282.24 251.061C283.984 246.774 288.891 241.232 294.579 236.358C300.708 231.11 307.766 226.66 312.786 225.421C312.966 225.372 313.145 225.339 313.324 225.291C313.21 225.291 313.096 225.291 312.982 225.291C295.997 224.688 267.309 224.948 250.537 223.546C233.797 222.145 217.008 223.758 200.659 227.67C185.434 231.322 170.601 236.945 156.632 244.003C139.257 252.772 122.614 263.824 103.592 267.931C97.3167 269.284 90.6174 269.822 84.6353 267.524C78.6532 265.226 73.6165 259.504 73.8121 253.098C74.0403 245.714 80.7885 240.091 87.7323 237.548C94.6761 235.022 102.256 234.516 109.102 231.745C123.772 225.812 133.193 210.36 145.614 201.118C147.977 199.357 150.455 197.809 153.095 196.619C155.345 195.592 157.708 194.81 160.235 194.337C158.865 194.402 157.496 194.451 156.094 194.484C143.837 194.859 130.813 194.516 118.735 195.087C111.335 195.429 103.771 195.755 96.6321 193.734C89.9817 191.859 83.9344 187.98 77.121 186.79C71.1226 185.747 65.1731 186.839 59.3703 188.828C55.0671 190.295 50.8454 192.267 46.7867 194.206C40.609 197.157 34.3824 200.123 28.7752 204.052C24.5698 206.986 19.8428 210.653 14.8713 209.333C11.5461 208.453 9.21518 205.519 7.43848 202.585C4.73268 198.102 2.71148 192.495 4.81418 187.703C7.34068 181.965 14.366 180.074 20.4622 178.607C43.2007 173.179 65.0101 164.492 86.7217 155.804C101.098 150.05 116.893 135.445 128.955 125.746C144.684 113.098 154.856 102.796 173.829 95.8849C185.809 91.5165 199.012 92.739 211.694 94.0267C217.725 94.6298 223.756 95.2492 229.77 95.8523C228.662 94.5157 228.467 92.8368 227.374 91.5002C225.337 89.0226 223.267 86.4961 220.643 84.6542C215.231 80.84 207.456 79.7968 204.245 73.994C203.413 72.4944 202.99 70.7992 202.631 69.1203C200.447 58.8676 200.365 47.9303 204.179 38.1666C204.717 36.7648 205.386 35.3467 206.527 34.3687C207.684 33.3907 209.2 32.9669 210.651 32.5757C218.197 30.5382 224.245 27.8813 231.808 25.8438C235.231 15.4933 240.105 3.72471 250.586 0.75811C256.372 -0.87189 262.501 0.692891 268.516 1.01889C274.612 1.36119 280.789 0.415811 286.82 1.34491C300.382 3.44761 310.618 14.3686 319.583 24.768C325.452 31.5651 331.368 38.6393 334.286 47.1316C337.644 56.9116 336.682 67.5718 336.503 77.906C335.786 121.003 349.51 162.862 356.454 205.405C358.394 217.32 359.567 230.458 352.982 240.58L352.966 240.564Z" fill="#ED7966"></path> <path d="M222.762 35.3467C219.844 33.6189 216.405 32.592 213.063 32.1845C210.765 31.9074 207.603 31.5814 205.565 32.9343C204.359 33.2929 203.854 34.548 203.675 35.9661C203.349 37.482 203.495 39.1609 203.838 40.8072C204.033 42.5187 204.424 44.8822 205.5 46.447C205.549 46.5448 205.598 46.6262 205.679 46.6751C206.054 47.1478 206.494 47.5391 207.032 47.7836C208.434 48.403 210.244 48.0933 211.711 47.9303C213.52 47.7184 215.362 47.425 217.106 46.8708C219.812 46.0069 223.691 44.5725 225.337 42.1112C227.098 39.4706 225.093 36.7159 222.778 35.3467H222.762Z" fill="#1E2144"></path> <path d="M250.847 75.7381C239.29 75.1839 227.505 73.8636 217.448 67.637C212.64 64.6541 208.646 60.4976 208.369 54.5644C208.222 51.4511 208.842 48.354 209.38 45.3059C209.754 43.1217 210.781 39.8292 209.689 37.7917C209.559 37.5472 209.119 37.4494 208.939 37.6939C208.059 38.786 207.978 40.204 207.652 41.5406C207.244 43.2521 206.804 44.9637 206.429 46.6915C205.777 49.7233 205.272 52.8039 205.614 55.9009C206.25 61.7363 209.999 66.1048 214.677 69.3322C225.044 76.439 238.475 78.6883 250.83 78.5579C252.656 78.5416 252.64 75.8196 250.83 75.7381H250.847Z" fill="#1E2144"></path> <path d="M208.483 61.5245C207.065 62.9752 205.549 63.9369 203.463 63.9858C202.012 64.0184 200.659 63.2848 199.241 63.4967C198.964 63.5456 198.801 63.888 198.882 64.1325C199.502 66.2352 202.517 66.7568 204.392 66.5775C206.886 66.3493 209.054 65.0941 210.504 63.0729C211.368 61.8667 209.494 60.4975 208.483 61.5081V61.5245Z" fill="#1E2144"></path> <path d="M261.016 24.6703C260.625 21.5244 259.174 18.5904 256.354 17.8406C254.17 17.2701 249.883 17.6776 249.003 20.1552C248.938 20.3345 249.134 20.4649 249.28 20.4323C250.698 20.1552 251.921 19.5684 253.355 19.4217C252.296 20.253 251.448 21.5244 250.927 22.6817C249.525 25.7298 249.834 29.7885 251.579 32.641C253.73 36.1781 258.31 34.76 260.022 31.5652C260.951 29.8374 261.326 27.1805 261.016 24.6377V24.6703Z" fill="#1E2144"></path> <path d="M288.532 56.6346C288.712 68.338 285.778 80.0739 280.121 90.3266C274.188 101.068 265.386 110.115 260.301 121.28C255.215 132.446 255.068 147.474 264.636 155.152C265.549 155.885 266.544 156.554 267.179 157.532C268.874 160.14 267.326 163.53 266.348 166.497C263.544 175.054 266.641 185.307 273.927 190.604C281.214 195.902 292.183 195.559 298.899 189.577C302.713 186.187 305.109 181.346 309.217 178.314C313.145 175.429 318.215 174.5 322.224 171.745C329.559 166.725 331.776 156.88 331.727 148.012C331.678 139.129 329.983 130.115 331.939 121.46C334.205 111.484 341.23 101.802 338.427 91.9566C337.546 88.8922 335.77 86.1702 334.808 83.1384C332.184 74.9069 335.916 66.1538 336.699 57.5637C337.856 44.8823 332.526 32.5106 325.99 21.5896C320.366 12.1845 306.886 0.464757 295.835 9.41346C282.143 20.4975 288.304 41.9482 288.516 56.6671L288.532 56.6346Z" fill="#DB5B52"></path> <path d="M286.478 260.727C283.055 261.672 281.034 266.872 280.089 269.904C278.899 273.702 278.263 278.298 280.349 281.868C281.23 283.368 283.283 282.602 283.43 281.037C283.74 277.646 283.104 274.321 283.87 270.947C284.245 269.301 284.799 267.72 285.565 266.204C286.25 264.851 287.391 263.351 287.603 261.835C287.701 261.183 287.228 260.515 286.478 260.711V260.727Z" fill="#1E2144"></path> <path d="M301.768 266.807C297.954 267.23 295.46 272.218 294.531 275.495C293.341 279.684 293.634 284.28 296.373 287.768C297.872 289.676 300.545 287.557 300.122 285.584C299.453 282.552 298.72 279.618 299.274 276.521C299.535 275.054 299.975 273.636 300.66 272.316C301.36 270.963 302.485 269.708 302.844 268.225C303.007 267.589 302.518 266.741 301.768 266.823V266.807Z" fill="#1E2144"></path> <path d="M88.1879 245.275C83.7869 244.492 79.7282 245.584 76.3704 248.6C73.3712 251.289 70.6328 256.636 72.1813 260.645C72.8659 262.438 75.4902 262.683 76.077 260.645C77.0061 257.467 76.9246 254.549 79.1903 251.86C81.2604 249.398 84.6834 247.801 87.8782 247.524C89.0681 247.426 89.5571 245.519 88.1879 245.258V245.275Z" fill="#1E2144"></path> <path d="M94.2682 253.604C90.7148 253.294 87.3733 257.157 86.0693 260.058C84.2111 264.15 84.3415 268.649 87.2266 272.169C88.7588 274.044 91.5787 272.006 91.0734 269.936C90.3888 267.182 89.7042 264.215 90.8452 261.493C91.8721 259.048 94.04 257.842 95.5396 255.804C96.2568 254.843 95.2625 253.718 94.2845 253.636L94.2682 253.604Z" fill="#1E2144"></path> <path d="M17.1203 188.143C12.9964 191.403 8.05746 192.854 2.87406 193.196C0.184559 193.375 0.217159 197.108 2.87406 197.352C9.18216 197.939 15.2784 194.549 18.8318 189.463C19.5979 188.355 18.0005 187.426 17.1203 188.143Z" fill="#1E2144"></path> <path d="M22.0437 199.292C21.7992 198.656 21.1309 198.118 20.4137 198.363C19.1586 198.803 18.4577 199.879 17.4634 200.71C16.5506 201.493 15.5726 202.226 14.4805 202.748C12.1659 203.84 9.52526 203.954 7.04766 204.345C5.17316 204.638 5.10795 207.361 6.54235 208.208C9.80236 210.148 13.8285 209.333 16.9092 207.426C19.2075 206.008 23.2173 202.422 22.0437 199.292Z" fill="#1E2144"></path> <path d="M159.81 185.682C157.643 186.317 155.393 186.676 153.258 187.393C151.204 188.094 149.199 188.942 147.227 189.838C145.14 190.8 146.982 194.141 149.053 192.968C152.639 190.947 156.355 188.616 160.218 187.165C161.131 186.823 160.788 185.372 159.81 185.665V185.682Z" fill="#FF9988"></path> <path d="M145.598 201.118C147.961 199.357 150.439 197.809 153.079 196.619C150.716 198.363 148.352 200.156 145.598 201.118Z" fill="#E2675A"></path> <path d="M195.018 176.065C181.571 181.183 167.96 186.399 156.078 194.467C143.82 194.842 130.796 194.5 118.718 195.071C111.318 195.413 103.755 195.739 96.6153 193.718C89.9649 191.843 83.9176 187.964 77.1042 186.774C71.1058 185.731 65.1563 186.823 59.3535 188.811C66.9819 184.671 79.2721 181.232 83.5264 180.759C93.665 179.618 104.081 179.879 113.861 176.945C121.228 174.728 128.042 170.767 135.572 169.235C143.82 167.572 152.345 168.942 160.642 170.327C172.101 172.234 183.543 174.141 195.002 176.049L195.018 176.065Z" fill="#E2675A"></path> <path d="M204.228 163.367C196.257 175.136 182.386 181.297 169.705 186.513C162.647 189.414 155.524 192.381 149.118 196.586C142.761 200.743 137.039 205.926 131.921 211.534C129.134 214.598 126.477 217.76 123.771 220.89C121.114 223.938 118.425 227.084 114.399 228.241C112.459 228.795 113.323 231.436 115.214 231.175C122.5 230.164 127.276 223.449 131.954 218.445C137.333 212.707 142.858 206.937 149.281 202.357C162.125 193.18 178.05 189.936 191.139 181.232C197.643 176.912 202.842 171.338 205.76 164.035C206.135 163.106 204.733 162.65 204.228 163.4V163.367Z" fill="#FF9988"></path> <path d="M327.13 215.038C322.713 218.249 318.279 221.444 313.862 224.655C313.568 224.867 313.275 225.079 312.982 225.291C295.997 224.687 267.309 224.948 250.536 223.546C233.796 222.145 217.007 223.758 200.658 227.67C202.468 226.562 204.228 225.372 205.94 224.101C215.899 216.619 224.668 205.926 237.024 204.329C249.444 202.731 260.985 211.044 273.438 212.332C280.936 213.114 288.434 211.305 295.948 210.686C306.511 209.822 317.252 211.321 327.163 215.054L327.13 215.038Z" fill="#E2675A"></path> <path d="M333.08 211.208C331.548 211.371 330.358 212.218 329.07 213.017C327.701 213.864 326.283 214.582 324.881 215.348C322.045 216.88 319.176 218.363 316.324 219.863C309.95 223.188 303.756 226.97 297.774 230.947C287.896 237.499 275.231 247.41 277.399 260.857C277.611 262.145 279.665 262.08 279.942 260.857C281.23 254.989 283.903 249.529 288.011 245.112C292.363 240.417 297.807 236.929 303.137 233.441C308.728 229.79 314.498 226.513 320.252 223.139C322.876 221.607 325.582 220.107 327.978 218.249C330.032 216.668 333.145 214.728 333.683 212.006C333.748 211.664 333.52 211.191 333.096 211.224L333.08 211.208Z" fill="#FF9988"></path> <path d="M299.126 59.2914C298.588 53.3908 297.382 47.5717 296.795 41.6711C296.176 35.5097 296.485 29.8047 297.822 23.7737C298.001 22.9587 296.811 22.3393 296.404 23.1706C291.237 33.4885 294.758 46.3329 296.013 57.1235C297.398 69.104 295.687 80.8726 291.351 92.1033C290.927 93.1954 292.736 93.9615 293.242 92.902C298.36 82.4863 300.185 70.7992 299.126 59.2751V59.2914Z" fill="#E2675A"></path> <path d="M306.283 75.9173C306.202 73.9613 305.68 72.201 305.468 70.2939C305.387 69.5115 304.18 69.4952 304.229 70.2939C304.343 72.0054 304.017 73.8636 303.952 75.5914C303.887 77.1399 303.773 78.6884 303.577 80.2369C303.17 83.7251 302.485 87.1969 301.54 90.5873C299.682 97.1562 296.666 103.318 293.113 109.137C292.053 110.897 294.612 112.217 295.786 110.702C300.154 105.045 303.039 98.395 304.718 91.4675C305.533 88.1097 306.088 84.6867 306.251 81.2311C306.332 79.4707 306.348 77.694 306.267 75.9336L306.283 75.9173Z" fill="#E2675A"></path> <path d="M285.223 101.932C285.729 101.166 284.62 100.367 283.985 100.97C277.024 107.621 273.194 116.39 270.081 125.355C267.114 133.929 265.566 144.475 272.118 151.843C273.227 153.098 275.166 151.501 274.384 150.099C269.934 142.144 271.711 133.228 274.416 125.029C277.057 116.993 280.529 109.006 285.223 101.932Z" fill="#E2675A"></path> <path d="M282.631 130.311C283.576 126.447 284.815 122.177 286.934 118.786C287.391 118.069 286.266 117.417 285.809 118.118C283.609 121.525 281.555 124.703 280.219 128.566C278.866 132.495 278.051 136.57 277.627 140.694C276.698 149.756 277.741 159.113 279.811 167.947C280.186 169.545 282.859 169.235 282.729 167.556C282.012 158.933 280.708 150.392 281.082 141.721C281.245 137.874 281.718 134.027 282.631 130.294V130.311Z" fill="#E2675A"></path> <path d="M288.026 159.096C287.896 158.624 287.097 158.559 286.999 159.096C286.282 163.367 286.201 167.67 285.744 171.973C285.272 176.44 284.571 180.857 284.016 185.307C283.805 186.953 286.347 187.149 286.804 185.682C288.14 181.33 288.776 176.88 289.021 172.332C289.265 167.833 289.249 163.432 288.026 159.08V159.096Z" fill="#E2675A"></path> <path d="M329.999 48.1585C329.282 44.5725 328.189 41.0516 326.722 37.7101C325.598 35.1347 324.049 30.7501 321.197 29.7232C321.017 29.658 320.854 29.821 320.838 30.0003C320.74 31.5162 321.555 32.7713 322.158 34.1242C322.941 35.8846 323.658 37.6613 324.261 39.5032C325.304 42.7632 326.054 46.0883 326.592 49.4787C327.847 57.4168 327.668 65.469 327.358 73.4723C327.277 75.8032 330.797 75.7706 330.96 73.4723C331.547 65.0616 331.661 56.4878 329.999 48.1748V48.1585Z" fill="#E2675A"></path> <path d="M321.832 75.4122C321.783 74.6787 320.756 74.6787 320.691 75.4122C320.235 80.6282 319.501 85.942 318.654 91.1091C317.822 96.1621 316.844 101.215 315.605 106.187C315.084 108.306 318.327 109.202 318.865 107.083C320.169 101.965 321.164 96.7815 321.702 91.5166C321.962 88.9086 322.125 86.2843 322.207 83.66C322.305 80.8564 322.011 78.1832 321.816 75.3959L321.832 75.4122Z" fill="#E2675A"></path> <path d="M319.892 128.11C319.762 123.448 319.615 118.265 317.627 113.962C317.366 113.391 316.632 113.766 316.567 114.255C316.029 118.689 316.714 123.269 316.6 127.735C316.486 132.446 316.029 137.189 315.214 141.835C313.78 149.985 310.993 157.858 306.347 164.769C305.239 166.415 307.83 168.453 309.118 166.904C314.905 159.96 317.61 151.305 318.963 142.487C319.697 137.727 320.007 132.951 319.876 128.126L319.892 128.11Z" fill="#E2675A"></path> <path d="M304.327 131.875C301.964 140.498 300.627 149.398 298.459 158.086C298.003 159.895 300.872 160.645 301.23 158.852C302.942 150.066 304.914 140.971 305.158 131.99C305.158 131.517 304.458 131.419 304.327 131.875Z" fill="#E2675A"></path> <path d="M234.27 45.1104C234.123 44.7518 233.895 44.4747 233.585 44.2302C233.21 43.9368 232.737 43.7412 232.248 43.7575C231.482 43.7901 230.732 44.165 230.341 44.8496C229.836 45.7135 230.015 46.8219 230.684 47.5228C230.684 47.5228 230.7 47.5391 230.716 47.5554C231.515 48.3867 232.982 48.3867 233.781 47.5554C233.781 47.5554 233.797 47.5391 233.813 47.5228C234.074 47.2457 234.269 46.9034 234.384 46.5448C234.53 46.0721 234.465 45.5505 234.27 45.1104Z" fill="#FF9988"></path> <path d="M226.918 50.6036C226.836 50.2939 226.673 50.0168 226.445 49.7886C226.412 49.756 226.38 49.7235 226.363 49.6746C226.233 49.5768 226.086 49.4627 225.956 49.3649C225.793 49.2997 225.63 49.2344 225.467 49.1692C225.043 49.0388 224.554 49.1041 224.147 49.2671C223.446 49.5605 222.875 50.3102 222.908 51.1089C222.94 51.8098 223.283 52.4944 223.902 52.853C224.293 53.0812 224.75 53.1464 225.19 53.0975C225.597 53.0486 226.07 52.8693 226.347 52.5433C226.38 52.5107 226.412 52.4781 226.429 52.4292C226.738 52.0543 226.999 51.6142 226.967 51.1089C226.95 50.9459 226.918 50.7829 226.901 50.6199L226.918 50.6036Z" fill="#FF9988"></path> <path d="M232.003 52.2009C231.204 52.2009 230.455 52.9018 230.487 53.7168C230.52 54.5318 231.156 55.2327 232.003 55.2327C232.802 55.2327 233.552 54.5318 233.519 53.7168C233.486 52.9018 232.851 52.2009 232.003 52.2009Z" fill="#FF9988"></path> <path d="M238.98 48.3703C238.98 48.3703 238.947 48.3541 238.931 48.3378C238.539 48.1422 237.953 48.0444 237.578 48.3378C237.578 48.3378 237.545 48.354 237.529 48.3703C237.333 48.4844 237.17 48.6475 237.056 48.8431C236.942 49.055 236.877 49.2668 236.877 49.495C236.877 49.7232 236.942 49.9514 237.056 50.147C237.17 50.3426 237.333 50.5057 237.529 50.6198C237.529 50.6198 237.561 50.636 237.578 50.6523C237.969 50.9457 238.539 50.8479 238.931 50.6523C238.947 50.6523 238.963 50.6361 238.98 50.6198C239.843 50.1797 239.843 48.7942 238.98 48.3378V48.3703Z" fill="#FF9988"></path> <path d="M242.972 55.5914C242.907 55.3958 242.826 55.2165 242.728 55.0698C242.483 54.5319 241.962 54.1081 241.342 54.1407C240.723 54.1733 240.201 54.5156 239.957 55.0698C239.859 55.2328 239.777 55.3958 239.712 55.5914C239.354 56.6509 240.299 57.743 241.342 57.743C242.385 57.743 243.331 56.6509 242.972 55.5914Z" fill="#FF9988"></path> <path d="M226.363 104.719C226.217 104.475 225.956 104.442 225.711 104.54C224.326 105.159 223.641 107.376 222.924 108.631C221.946 110.327 220.919 111.973 219.648 113.473C217.105 116.488 213.927 118.835 210.601 120.938C209.167 121.851 210.08 124.573 211.824 123.856C215.98 122.128 219.306 119.275 222.06 115.722C223.397 113.994 224.603 112.136 225.467 110.131C226.086 108.697 227.293 106.203 226.363 104.719Z" fill="#FF9988"></path> <path d="M220.56 121.362C220.332 121.085 219.892 121.134 219.647 121.362C217.561 123.253 215.491 125.046 212.964 126.382C210.405 127.735 207.667 128.697 205.108 130.05C203.054 131.126 204.472 134.402 206.673 133.782C210.291 132.755 213.779 131.044 216.762 128.746C218.523 127.393 222.663 123.839 220.56 121.378V121.362Z" fill="#FF9988"></path> <path d="M213.339 135.282C210.715 136.472 207.83 136.961 205.14 138.02C203.005 138.852 201.13 140.025 199.354 141.476C195.816 144.345 192.915 148.404 191.986 152.902C191.546 155.07 194.806 156.814 195.816 154.516C197.495 150.686 199.419 147.083 202.516 144.198C205.922 141.003 210.34 139.292 214.268 136.847C215.279 136.211 214.398 134.809 213.355 135.282H213.339Z" fill="#FF9988"></path> <path d="M208.499 146.562C204.929 147.018 202.109 149.985 200.137 152.788C197.888 155.967 196.893 159.879 197.138 163.742C197.333 166.855 201.848 166.888 201.995 163.742C202.126 160.792 202.924 157.825 204.228 155.184C205.565 152.479 207.765 150.604 209.428 148.159C209.852 147.54 209.298 146.464 208.515 146.562H208.499Z" fill="#FF9988"></path> <path d="M219.598 182.079C216.958 178.412 213.779 174.907 211.872 170.783C209.72 166.122 209.867 161.753 211.872 157.075C212.54 155.494 210.389 154.109 209.509 155.69C206.803 160.563 205.124 165.535 206.721 171.077C208.302 176.57 212.231 180.873 216.485 184.475C218.066 185.812 221.016 184.035 219.598 182.079Z" fill="#FF9988"></path> <path d="M238.817 196.195C234.954 192.74 231.025 189.105 228.173 184.736C225.32 180.401 222.696 175.103 223.038 169.806C223.136 168.273 220.87 168.355 220.707 169.806C220.006 175.706 220.707 181.33 223.707 186.562C226.641 191.696 230.764 195.983 235.247 199.798C237.708 201.9 241.294 198.396 238.833 196.212L238.817 196.195Z" fill="#FF9988"></path> <path d="M247.178 200.89C246.787 199.683 246.363 198.445 245.711 197.352C244.928 196.081 243.82 195.103 242.94 193.913C242.369 193.147 241.261 193.783 241.652 194.663C242.174 195.804 242.288 197.108 242.549 198.33C242.809 199.537 243.184 200.71 243.429 201.916C243.918 204.264 244.064 206.692 243.983 209.072C243.901 211.892 248.335 211.892 248.351 209.072C248.384 206.269 248.025 203.563 247.162 200.89H247.178Z" fill="#FF9988"></path> <path d="M255.508 213.392C253.405 208.518 252.28 203.335 252.313 198.021C252.313 196.652 250.275 196.668 250.194 198.021C249.868 203.709 250.373 209.415 251.954 214.891C252.72 217.532 256.649 216.049 255.508 213.392Z" fill="#FF9988"></path> <path d="M271.774 202.617C270.34 204.965 268.726 207.165 266.819 209.17C264.88 211.191 262.5 212.74 260.756 214.924C260.12 215.706 260.691 216.978 261.783 216.684C264.945 215.869 267.814 213.864 270.291 211.794C272.883 209.626 274.611 206.856 275.018 203.498C275.23 201.688 272.606 201.265 271.774 202.617Z" fill="#FF9988"></path> <path d="M284.115 204.541C282.143 205.926 280.48 207.654 278.557 209.105C276.617 210.556 274.628 211.794 272.428 212.821C271.613 213.196 272.2 214.468 273.031 214.239C277.823 212.968 283.218 210.767 286.103 206.529C286.902 205.356 285.305 203.726 284.131 204.557L284.115 204.541Z" fill="#FF9988"></path> <path d="M316.257 178.2C314.187 180.352 312.834 183.237 311.546 185.91C310.194 188.73 309.053 191.533 308.172 194.549C307.471 196.945 311.041 198.51 312.231 196.26C313.649 193.587 314.855 190.898 316.029 188.11C317.137 185.453 318.539 182.65 318.947 179.781C319.159 178.298 317.48 176.929 316.241 178.2H316.257Z" fill="#FF9988"></path> <path d="M307.879 186.187C306.689 186.546 305.956 187.621 305.238 188.567C304.211 189.952 303.201 191.338 302.304 192.805C300.495 195.755 299.028 198.656 297.854 201.916C296.991 204.361 300.674 205.78 301.962 203.644C304.912 198.722 307.83 193.277 309.444 187.768C309.721 186.839 308.792 185.926 307.879 186.203V186.187Z" fill="#FF9988"></path> <path d="M128.303 161.737C125.075 168.078 118.458 171.224 112.687 174.81C110.683 176.065 112.427 178.95 114.529 177.939C121.441 174.598 127.798 170.099 130.862 162.797C131.465 161.346 129.036 160.335 128.319 161.721L128.303 161.737Z" fill="#FF9988"></path> <path d="M138.996 160.938C138.034 162.959 135.589 165.029 133.976 166.529C132.166 168.192 130.064 169.577 127.83 170.604C125.418 171.712 127.521 175.135 129.884 174.125C132.623 172.968 134.986 171.338 136.975 169.121C137.871 168.126 138.67 167.051 139.257 165.844C139.925 164.475 140.104 163.008 140.658 161.639C141.033 160.694 139.436 160.009 138.996 160.938Z" fill="#FF9988"></path> <path d="M152.85 156.244C150.242 159.634 147.78 162.764 147.34 167.181C146.982 170.881 148.237 175.119 151.725 176.896C152.964 177.532 155.066 176.44 154.398 174.842C153.306 172.267 152.23 169.724 152.198 166.888C152.149 163.693 153.322 160.188 155.18 157.613C156.207 156.179 153.877 154.891 152.85 156.244Z" fill="#FF9988"></path> <path d="M162.533 174.386C161.881 173.033 161.18 171.533 160.854 170.066C160.496 168.485 160.822 167.116 160.805 165.567C160.805 165.339 160.528 165.16 160.333 165.29C158.866 166.252 158.099 168.518 157.953 170.18C157.757 172.528 158.425 174.614 160.235 176.162C161.506 177.255 163.267 175.902 162.533 174.386Z" fill="#FF9988"></path> <path d="M177.774 168.86C175.85 171.012 173.226 171.81 170.895 173.343C169.835 174.043 170.113 176.13 171.612 175.967C175.214 175.576 177.464 172.576 178.784 169.447C179.012 168.893 178.165 168.452 177.79 168.876L177.774 168.86Z" fill="#FF9988"></path> <path d="M324.278 249.659C323.561 248.86 322.453 249.398 322.11 250.23C321.458 251.843 321.752 253.864 321.344 255.576C320.92 257.353 320.219 259.097 319.6 260.808C319.03 262.422 321.246 263.498 322.355 262.406C324.164 260.629 325.044 258.575 325.403 256.065C325.696 253.979 325.762 251.305 324.278 249.643V249.659Z" fill="#FF9988"></path> <path d="M331.042 245.878C330.749 244.574 328.988 244.508 328.336 245.519C326.983 247.622 326.69 250.947 326.543 253.376C326.413 255.462 329.542 255.772 330.113 253.865C330.797 251.517 331.596 248.306 331.042 245.878Z" fill="#FF9988"></path> <path d="M338.085 238.428C336.389 241.721 334.955 244.508 336.683 248.143C337.416 249.692 339.437 248.502 339.225 247.067C338.851 244.606 338.052 241.411 339.242 239.097C339.633 238.331 338.492 237.662 338.085 238.428Z" fill="#FF9988"></path> <path d="M238.165 119.699C230.194 127.067 226.511 139.455 227.521 150.099C227.782 152.902 231.857 153 231.971 150.099C232.15 145.078 232.819 140.058 234.286 135.233C235.769 130.376 238.051 125.893 240.349 121.378C241.066 119.976 239.355 118.607 238.165 119.699Z" fill="#FF9988"></path> <path d="M247.178 174.043C245.646 171.224 244.293 168.175 243.364 165.095C242.419 161.949 242.077 158.672 241.702 155.429C241.588 154.418 240.104 154.027 239.811 155.168C238.05 162.128 240.006 170.05 244.065 175.853C245.385 177.727 248.287 176.097 247.178 174.043Z" fill="#FF9988"></path> </svg> 