<?xml version="1.0" encoding="UTF-8"?> <svg xmlns="http://www.w3.org/2000/svg" width="1352" height="1465" viewBox="0 0 1352 1465" fill="none"> <path d="M1230.61 1097.97L1070.89 1326.56C1165.68 1319.61 1259.72 1304.68 1352 1281.92C1319.64 1215.62 1278.84 1153.79 1230.61 1097.97Z" fill="#F9A55A"></path> <path d="M300.275 74.7203C297.639 92.1718 325.729 240.814 360.513 291.748L547.006 110.435C484.132 66.299 303.013 57.3703 300.275 74.7203Z" fill="#AF9797"></path> <path d="M317.515 94.0996C315.183 109.116 339.42 237.161 369.437 280.993L530.071 124.843C475.918 86.7943 319.848 79.0832 317.515 94.0996Z" fill="#564141"></path> <path d="M327.352 103.231C325.222 116.929 347.634 233.915 374.812 273.992L521.552 131.336C472.064 96.5347 329.482 89.4324 327.352 103.231Z" fill="#E06161"></path> <path d="M468.515 182.676L521.552 131.133C472.064 96.3317 329.482 89.2294 327.352 103.028C375.725 99.8829 432.514 131.133 468.515 182.676Z" fill="#BA4F4F"></path> <path d="M1003.96 1.05862C1018.77 10.4946 1024.24 125.654 1028.6 198.403L795.36 112.261C846.47 46.6152 989.56 -8.37738 1003.96 1.05862Z" fill="#AF9797"></path> <path d="M993.819 17.394C1007.1 25.9169 1011.97 130.119 1016.03 195.968L804.892 118.045C851.034 58.5877 980.535 8.76973 993.819 17.394Z" fill="#564141"></path> <path d="M990.879 25.3081C1002.95 33.0192 1003.25 125.959 1007 185.517L819.698 116.421C861.378 62.6463 978.709 17.597 990.879 25.3081Z" fill="#E06161"></path> <path d="M996.963 40.0201C989.932 74.0744 976.623 106.521 957.717 135.699C952.14 144.526 946.258 152.948 940.072 160.862L1007 185.517C1003.96 138.236 1003.25 70.1545 996.963 40.0201Z" fill="#BA4F4F"></path> <path d="M956.703 469.409L487.276 408.531C315.893 662.187 258.799 974.59 274.821 1131.75L1047.67 1197.81C1047.67 1197.81 1149.38 797.944 956.703 469.409Z" fill="#725E5E"></path> <path d="M451.579 821.179C451.579 660.462 489 515.98 548.527 416.648L487.681 408.734C316.298 662.39 259.204 974.793 275.227 1131.96L512.324 1152.25C474.092 1060.53 451.579 945.774 451.579 821.179Z" fill="#665252"></path> <path d="M986.619 525.822C1018.42 621.011 1034.21 720.817 1033.37 821.179C1033.37 963.226 1003.96 1093.3 955.892 1190.2L1047.16 1198.01C1047.16 1198.01 1138.23 842.181 986.619 525.822Z" fill="#665252"></path> <path d="M956.703 469.409L487.276 408.531C416.275 515.098 361.586 631.68 325.02 754.416C365.584 778.666 390.429 834.775 446.712 849.994C489 757.054 629.858 654.476 765.951 654.476C889.063 654.476 995.442 709.063 1045.94 788.305C1051.42 786.073 1056.8 783.841 1062.07 781.507C1047.23 671.687 1011.46 565.737 956.703 469.409Z" fill="#665252"></path> <path d="M463.14 704.294C463.14 704.294 410.508 832.035 429.269 1074.83L491.738 1045.11C433.731 905.189 463.14 704.294 463.14 704.294Z" fill="#5B4949"></path> <path d="M936.421 864.3C955.182 656.201 877.4 456.624 760.576 461.698C644.968 466.771 569.418 667.666 586.658 870.185C601.058 1038.41 676.913 1155.4 759.055 1155.5C841.197 1155.6 920.804 1036.48 936.421 864.3Z" fill="#665252"></path> <path d="M923.542 508.167L583.007 536.07C555.779 593.749 541.352 656.641 540.719 720.427L574.083 714.339C574.083 714.339 562.826 766.389 581.486 851.212L615.052 834.673C615.052 834.673 631.481 901.435 648.721 934.614L684.721 923.351L721.127 1015.38L770.717 967.69L780.858 993.259C802.707 973.762 822.828 952.409 840.994 929.439L853.265 955.008C853.265 955.008 902.854 907.016 908.533 875.867L923.238 906.306C923.238 906.306 955.689 825.136 955.993 807.076L978.709 824.527C978.709 824.527 1029.72 683.596 923.542 508.167Z" fill="#9B8484"></path> <path d="M759.967 652.447C846.126 652.2 928.923 685.876 990.473 746.198C992.298 688.263 981.042 603.238 923.542 508.167L583.007 536.07C555.779 593.749 541.352 656.641 540.719 720.427L569.621 715.151C624.446 673.865 691.351 651.825 759.967 652.447Z" fill="#846E6E"></path> <path d="M778.221 590.859C592.539 590.859 358.789 517.502 358.789 517.502L385.358 483.715L319.442 498.021C319.442 498.021 324.512 456.624 344.794 442.623L301.898 444.449C301.898 444.449 323.397 315.795 364.367 274.804C405.336 233.813 542.544 106.884 542.544 106.884L606.838 94.4039L590.815 74.7202C590.815 74.7202 661.803 64.0667 701.251 80.7065L691.11 50.2678C724.677 50.7751 802.661 64.9799 831.563 87.3016C854.38 104.855 1030.53 176.588 1030.53 176.588C1052.98 198.219 1071.93 223.206 1086.71 250.656L1063.49 249.641C1063.49 249.641 1133.16 331.927 1158.1 381.542L1127.68 383.267L1152.73 418.982L1113.69 416.04L1131.53 444.652C1131.53 444.652 924.556 590.859 778.221 590.859Z" fill="#8C7474"></path> <path d="M729.24 237.364C732.79 164.819 680.259 103.028 591.525 75.0247H590.815L606.838 94.404L542.544 106.884C542.544 106.884 405.641 233.407 364.062 274.804C322.484 316.201 301.594 444.449 301.594 444.449L344.794 442.623C324.512 456.625 319.442 498.021 319.442 498.021L385.359 483.715L365.076 510.095C394.175 506.968 422.969 501.471 451.174 493.658C610.489 449.522 724.068 338.421 729.24 237.364Z" fill="#7C6666"></path> <path d="M1026.07 389.862C1061.3 403.158 1097.9 412.516 1135.19 417.764L1153.03 419.388L1127.99 383.673L1158.41 381.948C1133.46 331.927 1063.79 250.047 1063.79 250.047L1087.02 251.062C1072.23 223.612 1053.28 198.625 1030.83 176.994C1030.83 176.994 854.583 104.855 831.563 87.3017C817.286 77.7601 801.521 70.6622 784.915 66.299C735.731 180.444 851.845 324.723 1026.07 389.862Z" fill="#7C6666"></path> <path d="M767.472 305.141C751.449 301.59 587.165 358.713 599.74 387.224C612.314 415.735 685.33 435.419 710.277 435.419C735.223 435.419 783.495 397.979 811.687 339.03C812.092 339.03 783.495 308.692 767.472 305.141Z" fill="#EAD5BE"></path> <path d="M743.945 394.327C691.414 416.04 637.87 405.893 624.484 373.121C622.801 368.876 621.808 364.389 621.543 359.829C605.723 369.976 596.393 379.615 599.74 387.224C612.213 416.04 685.33 435.419 709.871 435.419C734.412 435.419 783.089 397.979 811.281 339.03V337.914C796.21 364.093 772.352 384.081 743.945 394.327Z" fill="#DBBA9A"></path> <path d="M831.563 299.764C846.876 294.589 992.602 310.62 987.836 340.856C984.287 365.308 938.855 414.112 892.409 409.647C882.268 408.633 828.115 370.28 780.858 332.435C780.858 332.435 816.453 304.938 831.563 299.764Z" fill="#EAD5BE"></path> <path d="M859.349 334.87C859.674 328.257 861.428 321.793 864.492 315.925C867.556 310.057 871.856 304.924 877.096 300.88C862.029 298.556 846.726 298.181 831.563 299.764C816.25 304.938 780.858 332.435 780.858 332.435C827.912 370.28 882.268 408.633 892.409 409.546C910.686 410.592 928.787 405.484 943.824 395.037C895.756 389.457 859.349 364.7 859.349 334.87Z" fill="#DBBA9A"></path> <path d="M801.14 360.438C801.14 360.438 730.153 317.621 735.122 306.866C740.091 296.111 847.586 289.009 858.335 297.937C867.259 305.446 826.493 346.436 811.281 358.815C808.138 360.356 804.607 360.921 801.14 360.438Z" fill="#D85D5D"></path> <path d="M135.788 1464.04H547.615C561.914 1324.84 559.784 1124.55 533.316 1028.36C533.316 1028.36 160.329 1071.18 105.264 1131.86C98.165 1239.1 116.013 1371.21 135.788 1464.04Z" fill="#F9A55A"></path> <path d="M338.101 1349.49C427.241 1373.84 500.358 1417.17 540.922 1464.15H547.615C561.914 1324.94 559.784 1124.65 533.316 1028.47C533.316 1028.47 160.329 1071.28 105.264 1131.96C101.706 1202.21 104.864 1272.64 114.695 1342.29C173.107 1325.24 253.525 1326.36 338.101 1349.49Z" fill="#EF8E4B"></path> <path d="M1129.81 1464.04H522.972C519.524 1301.7 520.437 1149.51 533.113 1028.36C533.113 1028.36 1080.73 1028.36 1229.19 1096.14C1203.03 1232.3 1171.39 1358.42 1129.81 1464.04Z" fill="#EFC867"></path> <path d="M1229.7 1095.84C1095.33 1034.35 631.38 1028.67 547.006 1028.06C569.114 1252.09 735.629 1426.3 937.942 1426.3C1024.1 1425.78 1107.23 1394.44 1172.3 1337.93C1194.21 1263.25 1212.97 1181.67 1229.7 1095.84Z" fill="#FFD77D"></path> <path d="M105.568 1131.86C98.6721 1138.86 0 1303.33 0 1303.33L383.736 1310.53C383.736 1310.53 522.972 1078.39 533.62 1028.36C373.595 1032.52 226.043 1058.5 105.568 1131.86Z" fill="#EFC867"></path> <path d="M805.197 352.321C805.197 352.321 745.567 316.505 750.435 307.576C755.303 298.648 844.341 292.661 853.265 300.17C862.189 307.678 826.695 340.755 814.019 350.901C811.285 352.241 808.213 352.736 805.197 352.321Z" fill="#EF7878"></path> <path d="M792.419 350.292C797.286 338.827 802.56 327.463 794.244 320.766C784.103 312.447 758.142 321.68 758.142 321.68L792.419 350.292Z" fill="#D85D5D"></path> <path d="M818.684 348.06C817.061 335.174 815.642 325.028 822.233 319.042C828.825 313.055 850.527 315.795 850.527 315.795C841.31 327.846 830.612 338.687 818.684 348.06Z" fill="#D85D5D"></path> <path d="M730.153 568.233C637.768 568.233 443.264 526.126 362.44 512.936L358.992 517.299C358.992 517.299 589.193 595.019 774.773 595.019C910.156 595.019 1100.91 465.35 1128.39 446.478C1000.51 500.355 927.903 568.233 730.153 568.233Z" fill="#665252"></path> <path d="M616.979 259.483C614.545 233.306 603.593 222.044 591.424 222.044C579.255 222.044 570.432 233.407 572.764 259.483C575.097 285.559 586.151 296.821 598.32 296.821C610.489 296.821 619.413 285.559 616.979 259.483Z" fill="#564141"></path> <path d="M947.779 238.582C941.492 214.231 928.917 203.78 916.748 203.78C904.579 203.78 897.378 213.927 903.666 238.582C909.953 263.237 922.528 273.282 934.697 273.282C946.867 273.282 954.067 262.831 947.779 238.582Z" fill="#564141"></path> <path d="M775.483 418.475C799.619 446.478 833.693 435.723 837.039 408.328C821.422 420.504 799.72 421.62 775.483 418.475Z" fill="#665252"></path> <path d="M301.594 444.449L344.794 442.623C331.307 452.769 324.512 474.685 321.673 487.875C360.209 445.159 434.441 394.834 434.441 394.834C434.441 394.834 401.584 416.04 304.23 430.752C302.506 439.274 301.594 444.449 301.594 444.449Z" fill="#665252"></path> <path d="M341.144 329.188C324.572 315.643 306.861 303.558 288.208 293.067C316.069 282.465 345.44 276.368 375.218 275.007L341.144 329.188Z" fill="#7C6666"></path> <path d="M1129.71 445.768L1131.53 444.449L1113.69 416.04L1153.03 419.591L1150.6 416.141C1122.64 402.97 1093.37 392.768 1063.29 385.702C1063.29 385.702 1090.06 406.908 1129.71 445.768Z" fill="#665252"></path> <path d="M1109.93 307.982C1086.1 276.022 1063.69 249.641 1063.69 249.641L1086.91 250.656L1086.2 249.337L999.498 218.898C1038.22 246.144 1075.11 275.902 1109.93 307.982Z" fill="#665252"></path> <path d="M557.756 311.127C591.322 271.963 624.078 280.689 646.084 285.762L557.756 311.127Z" fill="#564141"></path> <path d="M886.527 266.281C933.886 245.989 959.34 268.006 977.087 282.008L886.527 266.281Z" fill="#564141"></path> <path d="M647.504 932.686L648.721 935.02L684.721 923.351L721.127 1015.38L724.373 1012.23C710.885 911.582 724.373 853.951 724.373 853.951C724.373 853.951 667.583 885.607 647.504 932.686Z" fill="#846E6E"></path> <path d="M851.845 952.877L852.859 955.008C852.859 955.008 902.449 907.016 908.128 875.867L922.832 906.306L925.165 900.624C919.199 865.946 904.428 833.384 882.268 806.061C882.268 806.061 887.136 867.953 851.845 952.877Z" fill="#846E6E"></path> <path d="M578.038 832.035C579.153 838.224 580.37 844.616 581.891 851.211L615.458 834.673C615.458 834.673 621.847 860.546 630.771 888.144C633.159 846.95 639.958 806.131 651.053 766.389C620.958 780.86 595.624 803.636 578.038 832.035Z" fill="#846E6E"></path> <path d="M929.931 732.805C940.226 767.703 945.986 803.782 947.069 840.152C951.11 829.513 953.934 818.451 955.486 807.177L978.202 824.628C980.403 818.281 982.232 811.81 983.678 805.249C970.191 746.299 929.931 732.805 929.931 732.805Z" fill="#846E6E"></path> <path d="M285.267 775.927C318.428 691.51 385.359 607.803 385.359 607.803L345.809 758.678L285.267 775.927Z" fill="#665252"></path> <path d="M270.258 879.824C292.163 791.45 346.823 699.424 346.823 699.424L327.555 855.371L270.258 879.824Z" fill="#665252"></path> <path d="M266.303 956.935C281.717 866.634 329.684 771.158 329.684 771.158L321.369 928.729L266.303 956.935Z" fill="#665252"></path> <path d="M1084.28 727.732C1061.53 668.342 1031.73 611.898 995.543 559.609L1030.33 710.28L1084.28 727.732Z" fill="#665252"></path> <path d="M1097.66 832.035C1081.98 769.458 1059.08 708.918 1029.41 651.635L1046.65 807.583L1097.66 832.035Z" fill="#665252"></path> <path d="M1101.21 908.741C1089.48 844.783 1070.46 782.382 1044.52 722.76L1051.93 880.331L1101.21 908.741Z" fill="#665252"></path> <path d="M1086.91 1037.9C1089.81 972.964 1085.25 907.907 1073.32 844.008L1045.34 999.245L1086.91 1037.9Z" fill="#665252"></path> </svg> 