<?xml version="1.0" encoding="UTF-8"?> <svg xmlns="http://www.w3.org/2000/svg" width="924" height="1137" viewBox="0 0 924 1137" fill="none"> <path d="M526.245 1014.3C535.831 1015.08 544.963 1018.71 552.46 1024.74C559.956 1030.76 565.473 1038.9 568.297 1048.09C580.312 1081.43 572.352 1126.34 544.418 1125.13C516.483 1123.93 497.861 1039.68 497.861 1039.68C497.861 1039.68 511.227 1010.84 526.245 1014.3Z" fill="#D4C7B5"></path> <path d="M571.3 968.191C571.3 968.191 575.055 1118.38 586.318 1123.63C597.582 1128.89 660.059 1128.14 660.059 1128.14L651.198 957.678C651.198 957.678 584.817 943.862 571.3 968.191Z" fill="#D4C7B5"></path> <path d="M750.47 591.98C750.47 591.98 793.122 742.164 784.411 780.011C775.701 817.857 768.041 820.11 768.041 820.11C768.041 820.11 774.199 847.443 761.133 859.458L747.917 871.473C747.917 871.473 729.144 991.169 719.832 1006.19C710.521 1021.21 703.763 1060.25 710.22 1063.56C716.678 1066.86 724.188 1063.56 732.748 1080.68C741.309 1097.8 729.744 1129.04 718.631 1129.79C707.517 1130.54 616.355 1133.99 608.996 1122.88C601.637 1111.77 598.033 972.697 598.033 972.697C598.033 972.697 584.516 991.62 579.71 988.616C576.828 986.926 574.404 984.553 572.652 981.708C572.652 981.708 570.099 996.726 557.633 995.525C545.168 994.323 541.263 988.316 541.263 988.316L520.538 1023.46C520.538 1023.46 552.527 1020.46 563.34 1061C574.154 1101.55 554.78 1123.93 543.366 1127.24C535.2 1128.93 526.713 1128.09 519.036 1124.83C514.493 1128.58 509.234 1131.37 503.58 1133.02C497.925 1134.67 491.993 1135.16 486.146 1134.45C469.626 1130.54 467.373 1127.84 467.373 1127.84C467.373 1127.84 201.397 1155.32 187.88 1114.77C174.364 1074.22 262.972 897.905 323.947 807.044C384.922 716.182 577.458 498.866 577.458 498.866L750.47 591.98Z" fill="#FAF4D7"></path> <path d="M601.337 559.09C601.337 559.09 691.448 670.526 689.946 736.307C688.444 802.088 664.415 798.934 664.415 798.934C664.415 798.934 671.023 823.714 637.381 841.286C628.642 846.476 618.364 848.446 608.325 846.855C598.286 845.264 589.12 840.213 582.414 832.575C578.257 837.609 572.69 841.286 566.428 843.133C560.166 844.979 553.494 844.911 547.271 842.938C537.039 840.206 527.613 835.055 519.787 827.919C519.787 827.919 504.769 866.366 488.999 863.212C473.23 860.059 446.347 851.198 446.347 851.198C446.347 851.198 485.695 940.107 460.314 965.037C434.933 989.968 424.871 981.858 424.871 981.858C424.871 981.858 402.944 1026.01 381.618 1033.22C367.542 1037.6 352.756 1039.23 338.064 1038.03C338.064 1038.03 295.863 1077.22 268.83 1078.88C252.982 1079.93 237.208 1075.94 223.774 1067.46C223.774 1067.46 195.84 1114.02 187.88 1114.77C179.921 1115.52 169.858 1088.34 169.858 1088.34C169.858 1088.34 113.689 1110.72 77.9456 1103.36C42.2017 1096 47.9087 1076.47 47.9087 1076.47C47.9087 1076.47 23.2785 1072.87 15.9195 1061.46C14.035 1057.67 13.3419 1053.41 13.9318 1049.23C14.5217 1045.04 16.3669 1041.14 19.2236 1038.03C19.2236 1038.03 -10.8133 1018.5 4.20516 992.07C19.2236 965.638 64.2788 1007.09 101.374 1005.74C138.47 1004.39 149.433 994.924 149.433 994.924C149.433 994.924 132.613 942.36 173.613 836.93C214.613 731.501 356.837 630.727 356.837 630.727C354.46 628.703 352.611 626.13 351.451 623.231C350.292 620.332 349.855 617.193 350.181 614.088C350.506 610.982 351.583 608.002 353.319 605.406C355.054 602.811 357.396 600.677 360.142 599.189C381.468 585.072 402.794 573.808 402.794 573.808C402.794 573.808 390.178 573.808 409.852 541.819C422.485 521.714 437.128 502.944 453.556 485.8C453.556 485.8 593.828 540.617 601.337 559.09Z" fill="#C55234"></path> <path d="M703.012 131.816C705.264 129.546 708.24 128.138 711.423 127.836C714.607 127.534 717.795 128.358 720.433 130.164C729.745 136.772 722.386 141.878 722.386 141.878C722.386 141.878 706.466 138.424 703.012 131.816Z" fill="#913D27"></path> <path d="M703.012 130.915C703.012 130.915 651.95 43.9581 648.345 3.55857C644.59 -14.013 596.682 37.5002 583.165 70.3905C574.815 92.4965 570.787 116 571.301 139.625L703.012 130.915Z" fill="#C55234"></path> <path d="M600.286 128.962C596.748 111.822 596.748 94.1394 600.286 76.9987C606.143 49.0645 639.333 16.9251 641.736 20.3793C644.139 23.8336 663.663 110.49 693.7 133.468C723.737 156.446 600.286 128.962 600.286 128.962Z" fill="#913D27"></path> <path d="M913.871 268.183L908.013 288.308C911.524 302.31 910.364 317.077 904.709 330.359C894.797 348.832 839.229 390.433 819.555 421.521C799.881 452.609 797.929 525.599 777.654 532.507C757.379 539.416 592.026 491.507 561.839 477.69C548.141 470.289 536.888 459.067 529.45 445.389C522.011 431.711 518.706 416.167 519.938 400.646C523.092 375.565 523.692 154.494 523.692 154.494C523.692 154.494 613.803 92.3175 703.012 128.962C754.976 152.992 829.918 180.025 874.522 178.523C894.497 190.688 913.871 268.183 913.871 268.183Z" fill="#FAF4D7"></path> <path d="M151.536 1044.33C139.997 1033.07 131.92 1018.74 128.258 1003.03C119.803 1004.81 111.211 1005.87 102.576 1006.19C65.3304 1006.19 21.777 965.488 5.40696 991.92C-10.9631 1018.35 20.4254 1037.88 20.4254 1037.88C17.5687 1040.99 15.7235 1044.89 15.1336 1049.08C14.5437 1053.26 15.2368 1057.52 17.1213 1061.31C24.4803 1072.57 49.1105 1076.32 49.1105 1076.32C49.1105 1076.32 42.953 1095.55 79.1474 1103.21C123.001 1094.35 158.895 1062.06 151.536 1044.33Z" fill="#E6603D"></path> <path d="M429.527 580.416C427.875 547.976 454.157 492.708 454.157 492.708L448.9 490.456C434.352 506.157 421.328 523.204 410.003 541.368C390.329 573.207 402.794 573.357 402.794 573.357C402.794 573.357 381.468 584.621 360.142 598.738C357.396 600.226 355.054 602.36 353.319 604.956C351.583 607.552 350.506 610.532 350.181 613.637C349.856 616.743 350.292 619.881 351.451 622.78C352.611 625.68 354.46 628.253 356.838 630.277C356.838 630.277 215.815 731.351 174.814 836.78C133.814 942.209 150.785 994.774 150.785 994.774L165.803 1037.13C167.455 989.067 349.479 853.601 349.479 853.601C349.479 853.601 338.815 837.531 349.479 796.681C360.142 755.831 424.571 727.596 424.571 727.596C424.571 727.596 410.603 725.193 413.908 693.204C417.212 661.215 462.267 625.771 462.267 625.771C453.268 621.807 445.49 615.514 439.735 607.542C433.98 599.569 430.456 590.205 429.527 580.416Z" fill="#E7753C"></path> <path d="M424.721 481.895C424.721 481.895 598.034 610.603 777.654 597.987V532.507C777.654 532.507 524.894 469.88 449.201 413.411L424.721 481.895Z" fill="#373131"></path> <path d="M615.004 485.499C615.004 485.499 520.538 448.254 539.912 427.228C559.286 406.202 726.891 332.762 763.236 280.498C799.58 228.234 789.067 168.01 696.854 143.38C637.997 129.309 576.275 133.179 519.637 154.494C519.637 154.494 369.453 98.3248 361.643 109.438C353.834 120.552 386.574 254.066 459.714 300.322C459.714 300.322 429.677 390.433 451.754 422.422C473.831 454.411 615.004 485.499 615.004 485.499Z" fill="#C55234"></path> <path d="M709.169 256.619C709.169 256.619 702.862 225.23 714.276 218.773C725.69 212.315 743.261 226.582 746.415 243.853C749.869 247.007 757.829 248.058 753.924 231.688C750.02 215.318 734.25 193.992 710.821 201.652C687.393 209.311 691.898 248.209 695.803 259.022C699.708 269.835 710.221 264.579 709.169 256.619Z" fill="#010101"></path> <path d="M683.187 155.395C678.521 158.059 675.013 162.364 673.347 167.472C671.682 172.581 671.977 178.126 674.176 183.029C681.085 202.553 701.66 179.424 702.862 168.01C704.063 156.596 689.495 152.391 683.187 155.395Z" fill="#913D27"></path> <path d="M526.245 188.285C526.245 188.285 406.098 130.164 403.695 140.977C401.292 151.79 427.424 265.33 474.582 280.498C491.853 278.846 486.447 243.253 493.505 227.633C500.564 212.014 537.659 200 526.245 188.285Z" fill="#913D27"></path> <path d="M797.627 322.55C797.627 322.55 872.719 328.557 895.547 295.516C899.452 303.326 875.723 320.597 859.653 327.205C843.584 333.813 792.221 330.359 797.627 322.55Z" fill="#953232"></path> <path d="M913.871 268.183C913.871 268.183 827.815 235.443 838.779 214.417C847.378 199.806 859.384 187.491 873.772 178.523C875.424 178.523 916.874 175.519 921.83 183.629C926.787 191.739 922.882 269.385 913.871 268.183Z" fill="#343030"></path> <path d="M919.878 209.011C919.878 207.809 923.332 186.783 912.368 182.879C901.405 178.974 879.028 176.421 879.628 186.333C880.229 196.245 918.226 215.769 919.878 209.011Z" fill="#867C7C"></path> <path d="M761.884 550.379C761.884 550.379 756.627 608.951 760.682 612.405C764.737 615.859 788.617 614.508 790.719 608.2C791.66 589.544 789.735 570.855 785.012 552.782C780.507 544.972 762.334 546.024 761.884 550.379Z" fill="#FBB81E"></path> <path d="M486.146 423.323C473.981 409.506 491.553 381.722 491.553 381.722C491.553 381.722 470.076 376.916 470.076 369.107C470.076 361.297 513.78 342.074 514.381 340.271C502.117 336.154 489.568 332.941 476.835 330.66C476.835 330.66 511.827 309.033 483.593 289.81C400.241 252.864 371.555 128.662 367.35 108.087C364.196 108.087 362.244 108.087 361.493 109.739C353.383 121.153 386.724 254.066 459.864 300.322C459.864 300.322 429.827 390.433 451.904 422.422C468.274 446.602 554.029 470.481 594.279 480.543C594.279 480.543 498.311 437.14 486.146 423.323Z" fill="#E7753C"></path> <path d="M610.648 485.5C610.648 485.5 733.649 486.25 801.683 400.045C782.309 476.188 711.872 515.987 610.648 485.5Z" fill="#D4C7B5"></path> </svg> 